<?xml version="1.0" standalone="no"?><!DOCTYPE svg PUBLIC "-//W3C//DTD SVG 1.1//EN" "http://www.w3.org/Graphics/SVG/1.1/DTD/svg11.dtd"><svg class="icon" width="200px" height="200.00px" viewBox="0 0 1024 1024" version="1.1" xmlns="http://www.w3.org/2000/svg"><path d="M512 859.428571a347.428571 347.428571 0 1 0 0-694.857142 347.428571 347.428571 0 0 0 0 694.857142z m0 36.571429C299.922286 896 128 724.077714 128 512S299.922286 128 512 128 896 299.922286 896 512 724.077714 896 512 896z m233.654857-733.732571a18.285714 18.285714 0 0 1 20.333714-30.390858 459.337143 459.337143 0 0 1 126.171429 126.134858 18.285714 18.285714 0 0 1-30.427429 20.333714 422.765714 422.765714 0 0 0-116.077714-116.077714zM162.267429 278.308571a18.285714 18.285714 0 1 1-30.390858-20.333714 459.337143 459.337143 0 0 1 126.134858-126.171428 18.285714 18.285714 0 1 1 20.333714 30.427428A422.765714 422.765714 0 0 0 162.267429 278.308571zM493.714286 292.571429a18.285714 18.285714 0 1 1 36.571428 0v219.428571a18.285714 18.285714 0 0 1-5.193143 12.763429L416.914286 635.977143a18.285714 18.285714 0 0 1-26.221715-25.490286l103.021715-105.910857V292.571429zM177.517714 872.374857a18.285714 18.285714 0 0 1-25.892571-25.892571l73.142857-73.142857a18.285714 18.285714 0 0 1 25.892571 25.892571l-73.142857 73.142857z m694.857143-25.892571a18.285714 18.285714 0 0 1-25.892571 25.892571l-73.142857-73.142857a18.285714 18.285714 0 0 1 25.892571-25.892571l73.142857 73.142857z" /></svg>