<?xml version="1.0" standalone="no"?><!DOCTYPE svg PUBLIC "-//W3C//DTD SVG 1.1//EN" "http://www.w3.org/Graphics/SVG/1.1/DTD/svg11.dtd"><svg class="icon" width="200px" height="200.00px" viewBox="0 0 1024 1024" version="1.1" xmlns="http://www.w3.org/2000/svg"><path d="M822.381714 408.502857a18.285714 18.285714 0 1 1 25.856 25.856L473.234286 809.398857a182.857143 182.857143 0 0 1-258.56-258.596571L589.531429 175.835429a128 128 0 0 1 181.028571 181.028571l-348.672 348.635429a73.142857 73.142857 0 1 1-103.424-103.424l219.538286-219.574858a18.285714 18.285714 0 1 1 25.892571 25.856L344.356571 627.931429a36.571429 36.571429 0 1 0 51.712 51.712l348.672-348.672a91.428571 91.428571 0 1 0-129.316571-129.28L240.457143 576.658286a146.285714 146.285714 0 1 0 206.884571 206.884571L822.381714 408.502857z" /></svg>