<?xml version="1.0" standalone="no"?><!DOCTYPE svg PUBLIC "-//W3C//DTD SVG 1.1//EN" "http://www.w3.org/Graphics/SVG/1.1/DTD/svg11.dtd"><svg class="icon" width="200px" height="200.00px" viewBox="0 0 1024 1024" version="1.1" xmlns="http://www.w3.org/2000/svg"><path d="M438.857143 310.857143a18.285714 18.285714 0 1 1 0-36.571429h146.285714a18.285714 18.285714 0 1 1 0 36.571429h-146.285714z m348.525714 0H731.428571a18.285714 18.285714 0 1 1 0-36.571429h73.142858a18.285714 18.285714 0 0 1 18.249142 17.152l36.571429 585.142857A18.285714 18.285714 0 0 1 841.142857 896H182.857143a18.285714 18.285714 0 0 1-18.249143-19.419429l36.571429-585.142857A18.285714 18.285714 0 0 1 219.428571 274.285714h73.142858a18.285714 18.285714 0 0 1 0 36.571429H236.617143l-34.304 548.571428h619.373714l-34.304-548.571428zM530.285714 694.857143a18.285714 18.285714 0 1 1 36.571429 0v73.142857a18.285714 18.285714 0 0 1-18.285714 18.285714h-73.142858a18.285714 18.285714 0 0 1-18.285714-18.285714v-292.571429a18.285714 18.285714 0 0 1 18.285714-18.285714h73.142858a18.285714 18.285714 0 0 1 18.285714 18.285714v36.571429a18.285714 18.285714 0 1 1-36.571429 0v-18.285714h-36.571428v256h36.571428V694.857143z m146.285715 0a18.285714 18.285714 0 1 1 36.571428 0v73.142857a18.285714 18.285714 0 0 1-18.285714 18.285714h-73.142857a18.285714 18.285714 0 0 1-17.737143-22.710857L671.451429 493.714286h-31.451429v18.285714a18.285714 18.285714 0 1 1-36.571429 0v-36.571429a18.285714 18.285714 0 0 1 18.285715-18.285714h73.142857a18.285714 18.285714 0 0 1 17.737143 22.710857L645.12 749.714286h31.451429V694.857143z m0-310.857143a18.285714 18.285714 0 1 1-36.571429 0V292.571429a128 128 0 0 0-256 0v75.410285a18.285714 18.285714 0 1 1-36.571429 0V292.571429a164.571429 164.571429 0 1 1 329.142858 0v91.428571z m-261.339429 224.768A18.285714 18.285714 0 0 1 420.571429 621.714286v146.285714a18.285714 18.285714 0 0 1-18.285715 18.285714H329.142857a18.285714 18.285714 0 0 1-18.285714-18.285714v-292.571429a18.285714 18.285714 0 0 1 18.285714-18.285714h73.142857a18.285714 18.285714 0 0 1 18.285715 18.285714v73.142858a18.285714 18.285714 0 0 1-5.339429 12.946285l-23.661714 23.625143 23.661714 23.625143zM347.428571 749.714286h36.571429v-120.429715l-31.232-31.195428a18.285714 18.285714 0 0 1 0-25.892572l31.232-31.195428V493.714286h-36.571429v256z" /></svg>