<?xml version="1.0" standalone="no"?><!DOCTYPE svg PUBLIC "-//W3C//DTD SVG 1.1//EN" "http://www.w3.org/Graphics/SVG/1.1/DTD/svg11.dtd"><svg class="icon" width="200px" height="200.00px" viewBox="0 0 1024 1024" version="1.1" xmlns="http://www.w3.org/2000/svg"><path d="M413.001143 402.285714l-41.947429-41.910857a18.285714 18.285714 0 0 1 25.892572-25.892571L438.857143 376.429714l41.910857-41.947428a18.285714 18.285714 0 0 1 25.892571 25.892571L464.713143 402.285714l41.947428 41.910857a18.285714 18.285714 0 0 1-25.892571 25.892572L438.857143 428.141714l-41.910857 41.947429a18.285714 18.285714 0 0 1-25.892572-25.892572L413.001143 402.285714zM694.857143 201.142857A54.857143 54.857143 0 0 0 640 256v585.142857a18.285714 18.285714 0 0 1-29.696 14.262857L438.857143 718.262857l-171.446857 137.142857A18.285714 18.285714 0 0 1 237.714286 841.142857V256A91.428571 91.428571 0 0 1 329.142857 164.571429h365.714286A91.428571 91.428571 0 0 1 786.285714 256v146.285714a18.285714 18.285714 0 0 1-18.285714 18.285715h-73.142857a18.285714 18.285714 0 1 1 0-36.571429h54.857143V256A54.857143 54.857143 0 0 0 694.857143 201.142857z m-365.714286 0A54.857143 54.857143 0 0 0 274.285714 256v547.108571l153.161143-122.514285a18.285714 18.285714 0 0 1 22.820572 0l153.161142 122.514285V256c0-20.589714 6.802286-39.570286 18.285715-54.857143H329.142857z" /></svg>
