<?xml version="1.0" standalone="no"?><!DOCTYPE svg PUBLIC "-//W3C//DTD SVG 1.1//EN" "http://www.w3.org/Graphics/SVG/1.1/DTD/svg11.dtd"><svg class="icon" width="200px" height="200.00px" viewBox="0 0 1024 1024" version="1.1" xmlns="http://www.w3.org/2000/svg"><path d="M713.142857 292.571429a18.285714 18.285714 0 1 1 36.571429 0v548.571428a18.285714 18.285714 0 0 1-28.416 15.213714L512 716.836571l-209.298286 139.52A18.285714 18.285714 0 0 1 274.285714 841.142857V182.857143a18.285714 18.285714 0 0 1 18.285715-18.285714h438.857142a18.285714 18.285714 0 1 1 0 36.571428H310.857143v605.842286l191.012571-127.341714a18.285714 18.285714 0 0 1 20.260572 0l191.012571 127.341714V292.571429z m-255.414857 211.090285a18.285714 18.285714 0 0 1-25.380571-18.432l5.12-58.733714-38.656-44.507429a18.285714 18.285714 0 0 1 9.691428-29.805714l57.417143-13.312 30.427429-50.505143a18.285714 18.285714 0 0 1 31.305142 0l30.427429 50.505143 57.417143 13.312a18.285714 18.285714 0 0 1 9.691428 29.805714l-38.656 44.507429 5.12 58.733714a18.285714 18.285714 0 0 1-25.380571 18.432L512 480.658286l-54.272 23.003428z m13.714286-45.531428l33.426285-14.153143a18.285714 18.285714 0 0 1 14.262858 0l33.426285 14.153143-3.108571-36.205715a18.285714 18.285714 0 0 1 4.388571-13.531428l23.808-27.428572-35.364571-8.192a18.285714 18.285714 0 0 1-11.556572-8.411428L512 333.275429l-18.724571 31.085714a18.285714 18.285714 0 0 1-11.556572 8.411428l-35.364571 8.192 23.771428 27.428572a18.285714 18.285714 0 0 1 4.425143 13.531428l-3.108571 36.205715z" /></svg>