<?xml version="1.0" standalone="no"?><!DOCTYPE svg PUBLIC "-//W3C//DTD SVG 1.1//EN" "http://www.w3.org/Graphics/SVG/1.1/DTD/svg11.dtd"><svg class="icon" width="200px" height="200.00px" viewBox="0 0 1024 1024" version="1.1" xmlns="http://www.w3.org/2000/svg"><path d="M164.571429 310.857143v475.428571h694.857142v-475.428571H658.285714a18.285714 18.285714 0 0 1-16.347428-10.093714L610.377143 237.714286h-196.827429l-31.524571 63.049143A18.285714 18.285714 0 0 1 365.714286 310.857143H164.571429z m505.014857-36.571429H877.714286a18.285714 18.285714 0 0 1 18.285714 18.285715v512a18.285714 18.285714 0 0 1-18.285714 18.285714H146.285714a18.285714 18.285714 0 0 1-18.285714-18.285714V292.571429a18.285714 18.285714 0 0 1 18.285714-18.285715h208.128l31.524572-63.049143A18.285714 18.285714 0 0 1 402.285714 201.142857h219.428572a18.285714 18.285714 0 0 1 16.347428 10.093714L669.622857 274.285714zM512 676.571429a128 128 0 1 1 0-256 128 128 0 0 1 0 256z m0-36.571429a91.428571 91.428571 0 1 0 0-182.857143 91.428571 91.428571 0 0 0 0 182.857143z m-292.571429-402.285714a18.285714 18.285714 0 0 1 0-36.571429h73.142858a18.285714 18.285714 0 0 1 0 36.571429H219.428571z" /></svg>
