<?xml version="1.0" standalone="no"?><!DOCTYPE svg PUBLIC "-//W3C//DTD SVG 1.1//EN" "http://www.w3.org/Graphics/SVG/1.1/DTD/svg11.dtd"><svg class="icon" width="200px" height="200.00px" viewBox="0 0 1024 1024" version="1.1" xmlns="http://www.w3.org/2000/svg"><path d="M731.428571 731.428571V182.857143H329.142857v548.571428h402.285714z m0 36.571429H329.142857v109.714286h402.285714v-109.714286zM310.857143 146.285714h438.857143a18.285714 18.285714 0 0 1 18.285714 18.285715v731.428571a18.285714 18.285714 0 0 1-18.285714 18.285714h-438.857143a18.285714 18.285714 0 0 1-18.285714-18.285714v-731.428571a18.285714 18.285714 0 0 1 18.285714-18.285715z m182.857143 694.857143a18.285714 18.285714 0 1 1 0-36.571428h73.142857a18.285714 18.285714 0 1 1 0 36.571428h-73.142857z" /></svg>
