<?xml version="1.0" standalone="no"?><!DOCTYPE svg PUBLIC "-//W3C//DTD SVG 1.1//EN" "http://www.w3.org/Graphics/SVG/1.1/DTD/svg11.dtd"><svg class="icon" width="200px" height="200.00px" viewBox="0 0 1024 1024" version="1.1" xmlns="http://www.w3.org/2000/svg"><path d="M164.571429 416.475429V621.714286a18.285714 18.285714 0 1 1-36.571429 0v-225.206857l-27.062857-14.738286a18.285714 18.285714 0 0 1 0-32.109714l402.285714-219.428572a18.285714 18.285714 0 0 1 17.554286 0l402.285714 219.428572a18.285714 18.285714 0 0 1 0 32.109714l-402.285714 219.428571a18.285714 18.285714 0 0 1-17.554286 0L164.571429 416.475429zM749.714286 548.571429a18.285714 18.285714 0 1 1 36.571428 0v201.142857a18.285714 18.285714 0 0 1-10.093714 16.347428l-256 128a18.285714 18.285714 0 0 1-16.384 0l-256-128A18.285714 18.285714 0 0 1 237.714286 749.714286V548.571429a18.285714 18.285714 0 1 1 36.571428 0v189.842285l237.714286 118.857143 237.714286-118.857143V548.571429z" /></svg>
