<?xml version="1.0" standalone="no"?><!DOCTYPE svg PUBLIC "-//W3C//DTD SVG 1.1//EN" "http://www.w3.org/Graphics/SVG/1.1/DTD/svg11.dtd"><svg class="icon" width="200px" height="200.00px" viewBox="0 0 1024 1024" version="1.1" xmlns="http://www.w3.org/2000/svg"><path d="M493.714286 512a18.285714 18.285714 0 1 1 36.571428 0v321.572571l41.910857-41.947428a18.285714 18.285714 0 0 1 25.892572 25.892571l-73.142857 73.142857a18.285714 18.285714 0 0 1-25.892572 0l-73.142857-73.142857a18.285714 18.285714 0 0 1 25.892572-25.892571l41.910857 41.947428V512z m402.285714 10.276571c0 95.232-76.434286 172.580571-170.678857 172.580572H621.714286a18.285714 18.285714 0 1 1 0-36.571429h103.606857c73.984 0 134.107429-60.891429 134.107428-136.009143a134.473143 134.473143 0 0 0-124.708571-134.802285 18.285714 18.285714 0 0 1-16.676571-14.738286C698.733714 273.481143 612.790857 201.142857 512 201.142857c-78.994286 0-150.089143 44.726857-186.112 114.724572a18.285714 18.285714 0 0 1-14.262857 9.837714C228.352 334.628571 164.571429 405.869714 164.571429 491.410286 164.571429 583.570286 238.445714 658.285714 329.142857 658.285714h73.142857a18.285714 18.285714 0 1 1 0 36.571429H329.142857c-111.030857 0-201.142857-91.245714-201.142857-203.446857 0-100.864 72.96-185.526857 169.984-200.777143C341.467429 213.467429 422.326857 164.571429 512 164.571429c113.92 0 211.565714 78.518857 238.994286 187.940571A171.154286 171.154286 0 0 1 896 522.24z" /></svg>
