<?xml version="1.0" standalone="no"?><!DOCTYPE svg PUBLIC "-//W3C//DTD SVG 1.1//EN" "http://www.w3.org/Graphics/SVG/1.1/DTD/svg11.dtd"><svg class="icon" width="200px" height="200.00px" viewBox="0 0 1024 1024" version="1.1" xmlns="http://www.w3.org/2000/svg"><path d="M256 859.428571c-24.393143 0-24.393143-36.571429 0-36.571428h109.714286a54.857143 54.857143 0 0 0 54.857143-54.857143 18.285714 18.285714 0 1 1 36.571428 0c0 20.589714-6.802286 39.570286-18.285714 54.857143h146.285714a91.026286 91.026286 0 0 1-18.285714-54.857143 18.285714 18.285714 0 1 1 36.571428 0 54.857143 54.857143 0 0 0 54.857143 54.857143h109.714286c24.393143 0 24.393143 36.571429 0 36.571428H256z m-128-256v73.142858h768v-73.142858h-768z m0-36.571428h768v-365.714286h-768v365.714286z m-36.571429 128V182.857143a18.285714 18.285714 0 0 1 18.285715-18.285714h804.571428a18.285714 18.285714 0 0 1 18.285715 18.285714v512a18.285714 18.285714 0 0 1-18.285715 18.285714H109.714286a18.285714 18.285714 0 0 1-18.285715-18.285714zM475.428571 658.285714a18.285714 18.285714 0 1 1 0-36.571428h73.142858a18.285714 18.285714 0 1 1 0 36.571428h-73.142858z" /></svg>
