<?xml version="1.0" standalone="no"?><!DOCTYPE svg PUBLIC "-//W3C//DTD SVG 1.1//EN" "http://www.w3.org/Graphics/SVG/1.1/DTD/svg11.dtd"><svg class="icon" width="200px" height="200.00px" viewBox="0 0 1024 1024" version="1.1" xmlns="http://www.w3.org/2000/svg"><path d="M493.714286 577.572571V182.857143a18.285714 18.285714 0 1 1 36.571428 0v394.715428l41.910857-41.947428a18.285714 18.285714 0 0 1 25.892572 25.892571l-73.142857 73.142857a18.285714 18.285714 0 0 1-25.892572 0l-73.142857-73.142857a18.285714 18.285714 0 0 1 25.892572-25.892571l41.910857 41.947428z m201.142857 25.856a18.285714 18.285714 0 1 1 0-36.571428h146.285714a18.285714 18.285714 0 0 1 18.285714 18.285714v219.428572a18.285714 18.285714 0 0 1-18.285714 18.285714H182.857143a18.285714 18.285714 0 0 1-18.285714-18.285714v-219.428572a18.285714 18.285714 0 0 1 18.285714-18.285714h146.285714a18.285714 18.285714 0 1 1 0 36.571428H201.142857v182.857143h621.714286v-182.857143H694.857143z" /></svg>
