<?xml version="1.0" standalone="no"?><!DOCTYPE svg PUBLIC "-//W3C//DTD SVG 1.1//EN" "http://www.w3.org/Graphics/SVG/1.1/DTD/svg11.dtd"><svg class="icon" width="200px" height="200.00px" viewBox="0 0 1024 1024" version="1.1" xmlns="http://www.w3.org/2000/svg"><path d="M731.428571 841.142857V475.428571a18.285714 18.285714 0 1 1 36.571429 0v384a18.285714 18.285714 0 0 1-18.285714 18.285715h-585.142857a18.285714 18.285714 0 0 1-18.285715-18.285715v-585.142857a18.285714 18.285714 0 0 1 18.285715-18.285714H548.571429a18.285714 18.285714 0 1 1 0 36.571429H182.857143v548.571428h548.571428z m-279.625142-243.053714a18.285714 18.285714 0 0 1-25.892572-25.892572l420.571429-420.571428a18.285714 18.285714 0 0 1 25.892571 25.892571l-420.571428 420.571429z" /></svg>
