<?xml version="1.0" standalone="no"?><!DOCTYPE svg PUBLIC "-//W3C//DTD SVG 1.1//EN" "http://www.w3.org/Graphics/SVG/1.1/DTD/svg11.dtd"><svg class="icon" width="200px" height="200.00px" viewBox="0 0 1024 1024" version="1.1" xmlns="http://www.w3.org/2000/svg"><path d="M512 896C299.922286 896 128 724.077714 128 512S299.922286 128 512 128 896 299.922286 896 512 724.077714 896 512 896z m0-36.571429a347.428571 347.428571 0 1 0 0-694.857142 347.428571 347.428571 0 0 0 0 694.857142z m198.656-523.629714l-77.568 284.452572a18.285714 18.285714 0 0 1-12.836571 12.8l-284.452572 77.604571a18.285714 18.285714 0 0 1-22.454857-22.454857l77.568-284.452572a18.285714 18.285714 0 0 1 12.836571-12.8l284.452572-77.604571a18.285714 18.285714 0 0 1 22.454857 22.454857z m-43.702857 21.211429L423.497143 423.497143l-66.413714 243.492571 243.492571-66.413714 66.413714-243.492571z" /></svg>
