<?xml version="1.0" standalone="no"?><!DOCTYPE svg PUBLIC "-//W3C//DTD SVG 1.1//EN" "http://www.w3.org/Graphics/SVG/1.1/DTD/svg11.dtd"><svg class="icon" width="200px" height="200.00px" viewBox="0 0 1024 1024" version="1.1" xmlns="http://www.w3.org/2000/svg"><path d="M237.714286 237.714286v47.177143l214.089143 214.198857A18.285714 18.285714 0 0 1 457.142857 512v208.128l109.714286 54.857143V512a18.285714 18.285714 0 0 1 5.339428-12.909714L786.285714 284.891429V237.714286h-548.571428z m182.857143 281.856L206.482286 305.408a18.285714 18.285714 0 0 1-5.339429-12.909714V219.428571a18.285714 18.285714 0 0 1 18.285714-18.285714h585.142858a18.285714 18.285714 0 0 1 18.285714 18.285714v73.069715a18.285714 18.285714 0 0 1-5.339429 12.909714L603.428571 519.570286V804.571429a18.285714 18.285714 0 0 1-26.477714 16.347428l-146.285714-73.142857A18.285714 18.285714 0 0 1 420.571429 731.428571v-211.858285z" /></svg>
