<?xml version="1.0" standalone="no"?><!DOCTYPE svg PUBLIC "-//W3C//DTD SVG 1.1//EN" "http://www.w3.org/Graphics/SVG/1.1/DTD/svg11.dtd"><svg class="icon" width="200px" height="200.00px" viewBox="0 0 1024 1024" version="1.1" xmlns="http://www.w3.org/2000/svg"><path d="M822.857143 310.857143H877.714286a18.285714 18.285714 0 0 1 18.285714 18.285714v438.857143a18.285714 18.285714 0 0 1-18.285714 18.285714H146.285714a18.285714 18.285714 0 0 1-18.285714-18.285714V219.428571a18.285714 18.285714 0 0 1 18.285714-18.285714h256a18.285714 18.285714 0 0 1 12.946286 5.339429l31.195429 31.232H804.571429a18.285714 18.285714 0 0 1 18.285714 18.285714v54.857143z m36.571428 36.571428H512a18.285714 18.285714 0 0 1-12.946286-5.339428L394.715429 237.714286H164.571429v512h694.857142v-402.285715z m-73.142857-36.571428v-36.571429h-303.286857l36.571429 36.571429H786.285714z m-80.713143 146.358857c21.211429 0 41.362286 7.753143 56.576 21.833143 15.506286 14.372571 24.137143 33.792 24.137143 54.491428a73.874286 73.874286 0 0 1-24.210285 54.381715l-42.130286 39.058285c-9.435429 8.777143-25.892571 23.698286-49.371429 44.873143a18.285714 18.285714 0 0 1-24.502857 0c-23.515429-21.211429-39.972571-36.169143-49.408-44.909714l-42.166857-39.131429a73.764571 73.764571 0 0 1-24.210286-54.381714c0-20.662857 8.630857-40.082286 24.137143-54.454857a82.688 82.688 0 0 1 56.576-21.833143c17.188571 0 33.609143 5.010286 47.36 14.409143a83.638857 83.638857 0 0 1 47.177143-14.336z m-10.496 142.957714l42.130286-39.058285c8.155429-7.570286 12.507429-17.334857 12.507429-27.574858 0-10.422857-4.315429-20.114286-12.434286-27.684571a46.299429 46.299429 0 0 0-31.707429-12.068571c-10.971429 0-21.138286 3.474286-29.293714 9.947428l-6.619428 5.229714a18.285714 18.285714 0 0 1-22.784 0l-6.582858-5.302857c-8.045714-6.436571-18.285714-9.947429-29.257142-9.947428-12.178286 0-23.332571 4.278857-31.744 12.068571a37.302857 37.302857 0 0 0-12.434286 27.648c0 10.313143 4.352 20.004571 12.507428 27.574857l42.166858 39.131429c7.570286 7.021714 19.858286 18.176 36.790857 33.499428 16.932571-15.286857 29.184-26.477714 36.754285-33.462857z" /></svg>
