<?xml version="1.0" standalone="no"?><!DOCTYPE svg PUBLIC "-//W3C//DTD SVG 1.1//EN" "http://www.w3.org/Graphics/SVG/1.1/DTD/svg11.dtd"><svg class="icon" width="200px" height="200.00px" viewBox="0 0 1024 1024" version="1.1" xmlns="http://www.w3.org/2000/svg"><path d="M723.858286 566.857143H548.571429a18.285714 18.285714 0 1 1 0-36.571429h175.286857l-41.947429-41.910857a18.285714 18.285714 0 0 1 25.892572-25.892571l73.142857 73.142857a18.285714 18.285714 0 0 1 0 25.892571l-73.142857 73.142857a18.285714 18.285714 0 0 1-25.892572-25.892571l41.947429-41.910857z m62.427428-256v-36.571429h-303.286857l36.571429 36.571429H786.285714z m36.571429 0H877.714286a18.285714 18.285714 0 0 1 18.285714 18.285714v438.857143a18.285714 18.285714 0 0 1-18.285714 18.285714H146.285714a18.285714 18.285714 0 0 1-18.285714-18.285714V219.428571a18.285714 18.285714 0 0 1 18.285714-18.285714h256a18.285714 18.285714 0 0 1 12.946286 5.339429l31.195429 31.232H804.571429a18.285714 18.285714 0 0 1 18.285714 18.285714v54.857143z m36.571428 36.571428H512a18.285714 18.285714 0 0 1-12.946286-5.339428L394.715429 237.714286H164.571429v512h694.857142v-402.285715z" /></svg>
