<?xml version="1.0" standalone="no"?><!DOCTYPE svg PUBLIC "-//W3C//DTD SVG 1.1//EN" "http://www.w3.org/Graphics/SVG/1.1/DTD/svg11.dtd"><svg class="icon" width="200px" height="200.00px" viewBox="0 0 1024 1024" version="1.1" xmlns="http://www.w3.org/2000/svg"><path d="M822.857143 310.857143H877.714286a18.285714 18.285714 0 0 1 18.285714 18.285714v438.857143a18.285714 18.285714 0 0 1-18.285714 18.285714H146.285714a18.285714 18.285714 0 0 1-18.285714-18.285714V219.428571a18.285714 18.285714 0 0 1 18.285714-18.285714h256a18.285714 18.285714 0 0 1 12.946286 5.339429l31.195429 31.232H804.571429a18.285714 18.285714 0 0 1 18.285714 18.285714v54.857143z m-219.428572 36.571428H512a18.285714 18.285714 0 0 1-12.946286-5.339428L394.715429 237.714286H164.571429v512h694.857142v-402.285715h-219.428571v193.938286l41.874286-42.24a18.285714 18.285714 0 0 1 25.965714 0l41.874286 42.24V402.285714a18.285714 18.285714 0 1 1 36.571428 0v183.515429a18.285714 18.285714 0 0 1-31.268571 12.873143L694.857143 537.965714l-60.16 60.708572a18.285714 18.285714 0 0 1-31.268572-12.873143V347.428571z m182.857143-36.571428v-36.571429h-303.286857l36.571429 36.571429H786.285714z" /></svg>
