<?xml version="1.0" standalone="no"?><!DOCTYPE svg PUBLIC "-//W3C//DTD SVG 1.1//EN" "http://www.w3.org/Graphics/SVG/1.1/DTD/svg11.dtd"><svg class="icon" width="200px" height="200.00px" viewBox="0 0 1024 1024" version="1.1" xmlns="http://www.w3.org/2000/svg"><path d="M585.142857 530.285714a310.857143 310.857143 0 0 1 310.857143 310.857143 18.285714 18.285714 0 0 1-18.285714 18.285714H292.571429a18.285714 18.285714 0 0 1-18.285715-18.285714 310.857143 310.857143 0 0 1 310.857143-310.857143z m0-36.571428a164.571429 164.571429 0 1 1 0-329.142857 164.571429 164.571429 0 0 1 0 329.142857z m-384 329.142857a18.285714 18.285714 0 1 1 0 36.571428H146.285714a18.285714 18.285714 0 0 1-18.285714-18.285714c0-117.504 65.828571-223.341714 168.338286-276.333714a18.285714 18.285714 0 1 1 16.786285 32.512A274.249143 274.249143 0 0 0 165.193143 822.857143H201.142857z m188.086857-650.678857a18.285714 18.285714 0 1 1 11.008 34.889143A127.780571 127.780571 0 0 0 310.857143 329.142857a127.780571 127.780571 0 0 0 89.380571 122.075429 18.285714 18.285714 0 0 1-11.008 34.889143A164.315429 164.315429 0 0 1 274.285714 329.142857a164.315429 164.315429 0 0 1 114.944-156.964571z" /></svg>
