<?xml version="1.0" standalone="no"?><!DOCTYPE svg PUBLIC "-//W3C//DTD SVG 1.1//EN" "http://www.w3.org/Graphics/SVG/1.1/DTD/svg11.dtd"><svg class="icon" width="200px" height="200.00px" viewBox="0 0 1024 1024" version="1.1" xmlns="http://www.w3.org/2000/svg"><path d="M713.142857 287.268571V219.428571a18.285714 18.285714 0 1 1 36.571429 0v94.281143l102.144 73.764572A18.285714 18.285714 0 0 1 841.142857 420.571429h-18.285714V841.142857a18.285714 18.285714 0 0 1-18.285714 18.285714H219.428571a18.285714 18.285714 0 0 1-18.285714-18.285714V420.571429H182.857143a18.285714 18.285714 0 0 1-10.715429-33.097143l329.142857-237.714286a18.285714 18.285714 0 0 1 21.430858 0l190.427428 137.508571zM402.285714 822.857143h219.428572v-164.461714A109.824 109.824 0 0 0 512 548.571429c-60.452571 0-109.714286 49.152-109.714286 109.824V822.857143z" /></svg>
