<?xml version="1.0" standalone="no"?><!DOCTYPE svg PUBLIC "-//W3C//DTD SVG 1.1//EN" "http://www.w3.org/Graphics/SVG/1.1/DTD/svg11.dtd"><svg class="icon" width="200px" height="200.00px" viewBox="0 0 1024 1024" version="1.1" xmlns="http://www.w3.org/2000/svg"><path d="M725.394286 373.430857l26.258285-52.48a18.285714 18.285714 0 1 1 32.694858 16.384l-29.44 58.88a379.611429 379.611429 0 0 1 87.003428 109.494857c8.594286 16.420571 14.006857 29.330286 16.566857 37.083429a18.285714 18.285714 0 0 1 0 11.556571c-2.56 7.753143-7.972571 20.662857-16.603428 37.046857a379.611429 379.611429 0 0 1-55.808 79.250286 363.52 363.52 0 0 1-46.665143 42.861714l114.688 114.688a18.285714 18.285714 0 0 1-25.892572 25.892572l-119.515428-119.552c-54.491429 33.133714-119.844571 51.748571-196.681143 51.748571-117.394286 0-207.872-43.446857-274.066286-115.638857A379.611429 379.611429 0 0 1 182.125714 591.36a264.886857 264.886857 0 0 1-16.603428-37.046857 18.285714 18.285714 0 0 1 0-11.556572c2.56-7.753143 7.972571-20.662857 16.603428-37.046857a379.611429 379.611429 0 0 1 77.238857-100.754285 18.285714 18.285714 0 1 1 24.795429 26.88 343.296 343.296 0 0 0-69.705143 90.953142 275.382857 275.382857 0 0 0-12.105143 25.746286c2.486857 6.290286 6.473143 15.104 12.105143 25.746286a343.296 343.296 0 0 0 50.468572 71.606857C324.388571 710.875429 405.357714 749.714286 512 749.714286c66.194286 0 122.514286-14.994286 169.947429-41.874286l-512-512.036571a18.285714 18.285714 0 1 1 25.856-25.892572l517.485714 517.485714a325.266286 325.266286 0 0 0 45.787428-41.472 343.296 343.296 0 0 0 50.468572-71.606857 275.382857 275.382857 0 0 0 12.105143-25.746285 275.382857 275.382857 0 0 0-12.105143-25.746286 343.296 343.296 0 0 0-50.468572-71.606857C699.611429 386.267429 618.642286 347.428571 512 347.428571c-12.214857 0-24.137143 0.512-35.766857 1.536a18.285714 18.285714 0 0 1-3.218286-36.425142c6.802286-0.585143 13.714286-1.024 20.699429-1.316572V256a18.285714 18.285714 0 1 1 36.571428 0v55.222857c76.8 3.035429 141.568 25.234286 195.108572 62.208z m-178.395429 54.052572a18.285714 18.285714 0 1 1 14.006857-33.755429 128.146286 128.146286 0 0 1 69.266286 69.266286 18.285714 18.285714 0 1 1-33.755429 14.006857 91.574857 91.574857 0 0 0-49.517714-49.517714z m-9.142857 245.394285a18.285714 18.285714 0 0 1 10.313143 35.108572A127.158857 127.158857 0 0 1 512 713.142857a128 128 0 0 1-128-128v-36.571428a18.285714 18.285714 0 1 1 36.571429 0v36.571428a91.428571 91.428571 0 0 0 117.284571 87.734857z" /></svg>
