<?xml version="1.0" standalone="no"?><!DOCTYPE svg PUBLIC "-//W3C//DTD SVG 1.1//EN" "http://www.w3.org/Graphics/SVG/1.1/DTD/svg11.dtd"><svg class="icon" width="200px" height="200.00px" viewBox="0 0 1024 1024" version="1.1" xmlns="http://www.w3.org/2000/svg"><path d="M780.653714 303.652571c-43.739429 137.874286-82.578286 260.498286-116.516571 367.762286a18.285714 18.285714 0 0 1-20.004572 12.580572c-174.921143-24.685714-331.190857 9.398857-450.742857 85.284571a50.102857 50.102857 0 0 0-23.990857 44.361143c1.170286 12.946286 5.339429 22.784 12.361143 30.464 4.205714 4.644571 8.886857 8.338286 13.933714 11.081143 10.24 4.608 23.296 6.290286 37.010286 3.108571 6.217143-1.828571 12.690286-4.754286 19.382857-8.777143 123.574857-75.337143 284.708571-95.524571 469.101714-51.565714l134.509715-471.917714a467.748571 467.748571 0 0 0-75.044572-22.381715z m11.117715-35.035428c31.085714 6.692571 62.171429 16.676571 93.147428 29.842286a18.285714 18.285714 0 0 1 10.422857 21.833142l-143.798857 504.685715a18.285714 18.285714 0 0 1-22.162286 12.690285c-182.491429-47.104-339.712-29.220571-458.24 43.044572a117.540571 117.540571 0 0 1-30.317714 13.238857c-22.308571 5.961143-43.666286 3.437714-61.988571-6.326857a75.958857 75.958857 0 0 1-30.134857-25.197714 90.185143 90.185143 0 0 1-15.469715-42.057143c-2.669714-22.930286 1.462857-50.651429 11.483429-85.028572l25.014857-85.942857a18.432 18.432 0 0 1 0.548571-2.56l72.009143-247.369143c49.371429-162.56 327.533714-307.931429 569.709715-262.436571a18.285714 18.285714 0 0 1 14.043428 23.515428l-34.267428 108.068572zM240.749714 535.552a18.432 18.432 0 0 1-0.548571 2.56l-56.502857 194.121143c121.892571-74.020571 277.504-107.739429 450.194285-86.491429 42.752-135.021714 93.037714-293.741714 150.893715-476.086857-219.794286-30.72-465.188571 101.083429-507.465143 240.274286l-36.571429 125.622857z" /></svg>
