<?xml version="1.0" standalone="no"?><!DOCTYPE svg PUBLIC "-//W3C//DTD SVG 1.1//EN" "http://www.w3.org/Graphics/SVG/1.1/DTD/svg11.dtd"><svg class="icon" width="200px" height="200.00px" viewBox="0 0 1024 1024" version="1.1" xmlns="http://www.w3.org/2000/svg"><path d="M640 640V877.714286a18.285714 18.285714 0 0 1-31.232 12.946285l-438.857143-438.857142A18.285714 18.285714 0 0 1 164.571429 438.857143V182.857143a18.285714 18.285714 0 0 1 18.285714-18.285714h256a18.285714 18.285714 0 0 1 12.946286 5.339428l438.857142 438.857143A18.285714 18.285714 0 0 1 877.714286 640h-237.714286z m193.572571-36.571429l-402.285714-402.285714H201.142857v230.144l402.285714 402.285714V621.714286a18.285714 18.285714 0 0 1 18.285715-18.285715h211.858285zM329.142857 402.285714a73.142857 73.142857 0 1 1 0-146.285714 73.142857 73.142857 0 0 1 0 146.285714z m0-36.571428a36.571429 36.571429 0 1 0 0-73.142857 36.571429 36.571429 0 0 0 0 73.142857z" /></svg>
