<?xml version="1.0" standalone="no"?><!DOCTYPE svg PUBLIC "-//W3C//DTD SVG 1.1//EN" "http://www.w3.org/Graphics/SVG/1.1/DTD/svg11.dtd"><svg class="icon" width="200px" height="200.00px" viewBox="0 0 1024 1024" version="1.1" xmlns="http://www.w3.org/2000/svg"><path d="M822.857143 592.713143V877.714286a18.285714 18.285714 0 1 1-36.571429 0v-285.001143l-41.910857 41.947428a18.285714 18.285714 0 0 1-25.892571-25.892571l73.142857-73.142857a18.285714 18.285714 0 0 1 25.892571 0l73.142857 73.142857a18.285714 18.285714 0 0 1-25.892571 25.892571L822.857143 592.713143zM311.954286 731.428571h180.662857L402.285714 583.643429 311.954286 731.428571z m-22.198857 36.352l-72.996572 119.478858a18.285714 18.285714 0 1 1-31.232-19.090286l201.142857-329.142857a18.285714 18.285714 0 0 1 31.232 0l201.142857 329.142857a18.285714 18.285714 0 1 1-31.232 19.090286l-72.996571-119.478858A18.432 18.432 0 0 1 512 768H292.571429a18.432 18.432 0 0 1-2.816-0.219429zM271.433143 420.571429H585.142857a18.285714 18.285714 0 1 1 0 36.571428H219.428571a18.285714 18.285714 0 0 1-11.446857-32.548571l323.913143-260.022857H219.428571a18.285714 18.285714 0 0 1 0-36.571429h364.434286a18.285714 18.285714 0 0 1 11.446857 32.548571L271.433143 420.571429z" /></svg>
