<?xml version="1.0" standalone="no"?><!DOCTYPE svg PUBLIC "-//W3C//DTD SVG 1.1//EN" "http://www.w3.org/Graphics/SVG/1.1/DTD/svg11.dtd"><svg class="icon" width="200px" height="200.00px" viewBox="0 0 1024 1024" version="1.1" xmlns="http://www.w3.org/2000/svg"><path d="M547.437714 766.756571c161.682286-146.944 212.224-199.021714 248.027429-265.618285 18.358857-34.194286 27.392-66.925714 27.392-100.681143 0-91.282286-71.460571-162.742857-162.742857-162.742857a178.834286 178.834286 0 0 0-134.217143 62.354285 18.285714 18.285714 0 0 1-27.794286 0A178.834286 178.834286 0 0 0 363.885714 237.714286c-91.282286 0-162.742857 71.460571-162.742857 162.742857 0 33.865143 9.106286 66.779429 27.611429 101.12 35.913143 66.523429 86.820571 118.857143 247.844571 264.850286l35.474286 32.292571 35.364571-31.963429zM660.114286 201.142857c111.469714 0 199.314286 87.844571 199.314285 199.314286 0 40.082286-10.605714 78.701714-31.744 117.979428-38.656 71.899429-90.221714 125.037714-255.707428 275.419429l-47.725714 43.117714a18.285714 18.285714 0 0 1-24.576-0.036571l-47.689143-43.446857c-164.717714-149.357714-216.649143-202.788571-255.414857-274.578286-21.284571-39.424-32-78.226286-32-118.454857 0-111.469714 87.844571-199.314286 199.314285-199.314286A215.405714 215.405714 0 0 1 512 261.558857 215.405714 215.405714 0 0 1 660.114286 201.142857z" /></svg>
