<?xml version="1.0" standalone="no"?><!DOCTYPE svg PUBLIC "-//W3C//DTD SVG 1.1//EN" "http://www.w3.org/Graphics/SVG/1.1/DTD/svg11.dtd"><svg class="icon" width="200px" height="200.00px" viewBox="0 0 1024 1024" version="1.1" xmlns="http://www.w3.org/2000/svg"><path d="M660.114286 201.142857c111.469714 0 199.314286 87.844571 199.314285 199.314286 0 40.082286-10.605714 78.701714-31.744 117.979428-38.656 71.899429-90.221714 125.037714-255.707428 275.419429l-47.725714 43.117714a18.285714 18.285714 0 0 1-24.576-0.036571l-47.689143-43.446857c-164.717714-149.357714-216.649143-202.788571-255.414857-274.578286-21.284571-39.424-32-78.226286-32-118.454857 0-111.469714 87.844571-199.314286 199.314285-199.314286A215.405714 215.405714 0 0 1 512 261.558857 215.405714 215.405714 0 0 1 660.114286 201.142857z" /></svg>
