<?xml version="1.0" standalone="no"?><!DOCTYPE svg PUBLIC "-//W3C//DTD SVG 1.1//EN" "http://www.w3.org/Graphics/SVG/1.1/DTD/svg11.dtd"><svg class="icon" width="200px" height="200.00px" viewBox="0 0 1024 1024" version="1.1" xmlns="http://www.w3.org/2000/svg"><path d="M539.574857 866.742857a9570.377143 9570.377143 0 0 0 86.674286-75.081143c3.657143-3.291429 3.657143-3.291429 7.387428-6.509714 44.361143-39.131429 78.409143-70.144 98.157715-89.929143A310.857143 310.857143 0 1 0 201.142857 475.428571a309.76 309.76 0 0 0 91.062857 219.794286c19.748571 19.748571 53.76 50.834286 98.157715 89.929143l7.424 6.509714A9570.377143 9570.377143 0 0 0 512 890.294857c8.374857-7.131429 17.627429-14.994286 27.574857-23.552z m218.112-145.627428c-20.48 20.48-54.930286 51.894857-99.876571 91.465142l-7.460572 6.582858a9605.851429 9605.851429 0 0 1-126.537143 109.092571 18.285714 18.285714 0 0 1-23.625142 0 5901.787429 5901.787429 0 0 1-39.533715-33.718857 9605.851429 9605.851429 0 0 1-87.04-75.410286l-7.424-6.546286c-44.946286-39.570286-79.36-71.021714-99.84-91.465142A347.428571 347.428571 0 0 1 512 128a347.428571 347.428571 0 0 1 245.650286 593.115429zM512 566.857143a91.428571 91.428571 0 1 1 0-182.857143 91.428571 91.428571 0 0 1 0 182.857143z m0-36.571429a54.857143 54.857143 0 1 0 0-109.714285 54.857143 54.857143 0 0 0 0 109.714285z" /></svg>
