<?xml version="1.0" standalone="no"?><!DOCTYPE svg PUBLIC "-//W3C//DTD SVG 1.1//EN" "http://www.w3.org/Graphics/SVG/1.1/DTD/svg11.dtd"><svg class="icon" width="200px" height="200.00px" viewBox="0 0 1024 1024" version="1.1" xmlns="http://www.w3.org/2000/svg"><path d="M457.069714 386.413714a495.36 495.36 0 0 1 389.668572 324.388572l11.556571 32.841143c6.290286 17.737143-15.104 32.219429-29.257143 19.821714a501.394286 501.394286 0 0 0-328.704-124.050286l-43.264-0.109714V768a18.285714 18.285714 0 0 1-31.232 12.946286l-256-256a18.285714 18.285714 0 0 1 0-25.892572l256-256a18.285714 18.285714 0 0 1 31.232 12.946286v130.413714z m-36.571428 337.444572v-102.912a18.285714 18.285714 0 0 1 18.322285-18.285715l61.622858 0.182858a537.965714 537.965714 0 0 1 301.458285 93.476571 458.788571 458.788571 0 0 0-365.385143-275.894857 18.285714 18.285714 0 0 1-16.018285-18.139429V300.141714L208.64 512l211.858286 211.858286z" /></svg>
