<?xml version="1.0" standalone="no"?><!DOCTYPE svg PUBLIC "-//W3C//DTD SVG 1.1//EN" "http://www.w3.org/Graphics/SVG/1.1/DTD/svg11.dtd"><svg class="icon" width="200px" height="200.00px" viewBox="0 0 1024 1024" version="1.1" xmlns="http://www.w3.org/2000/svg"><path d="M896 640h18.285714a18.285714 18.285714 0 0 1 18.285715 18.285714v146.285715a18.285714 18.285714 0 0 1-18.285715 18.285714h-219.428571a18.285714 18.285714 0 0 1-18.285714-18.285714v-146.285715a18.285714 18.285714 0 0 1 18.285714-18.285714h164.571428V585.142857a54.857143 54.857143 0 0 0-109.714285 0 18.285714 18.285714 0 1 1-36.571429 0 91.428571 91.428571 0 1 1 182.857143 0v54.857143z m-731.428571 109.714286h438.857142a18.285714 18.285714 0 1 1 0 36.571428H146.285714a18.285714 18.285714 0 0 1-18.285714-18.285714V256a18.285714 18.285714 0 0 1 18.285714-18.285714h731.428572a18.285714 18.285714 0 0 1 18.285714 18.285714v182.857143a18.285714 18.285714 0 1 1-36.571429 0V274.285714h-694.857142v475.428572z m347.428571-224L793.6 314.514286a18.285714 18.285714 0 0 1 21.942857 29.257143l-292.571428 219.428571a18.285714 18.285714 0 0 1-21.942858 0l-292.571428-219.428571a18.285714 18.285714 0 0 1 21.942857-29.257143l281.6 211.2z m201.142857 150.857143v109.714285h182.857143v-109.714285h-182.857143z" /></svg>
