<?xml version="1.0" standalone="no"?><!DOCTYPE svg PUBLIC "-//W3C//DTD SVG 1.1//EN" "http://www.w3.org/Graphics/SVG/1.1/DTD/svg11.dtd"><svg class="icon" width="200px" height="200.00px" viewBox="0 0 1024 1024" version="1.1" xmlns="http://www.w3.org/2000/svg"><path d="M164.571429 749.714286H658.285714a18.285714 18.285714 0 1 1 0 36.571428H146.285714a18.285714 18.285714 0 0 1-18.285714-18.285714V256a18.285714 18.285714 0 0 1 18.285714-18.285714h731.428572a18.285714 18.285714 0 0 1 18.285714 18.285714v237.714286a18.285714 18.285714 0 1 1-36.571429 0v-219.428572h-694.857142v475.428572z m687.286857-182.784c21.211429 0 41.362286 7.753143 56.576 21.833143 15.506286 14.372571 24.137143 33.792 24.137143 54.491428a73.874286 73.874286 0 0 1-24.210286 54.381714l-42.130286 39.058286c-9.435429 8.777143-25.892571 23.698286-49.371428 44.873143a18.285714 18.285714 0 0 1-24.502858 0c-23.515429-21.211429-39.972571-36.169143-49.408-44.909714l-42.166857-39.131429a73.764571 73.764571 0 0 1-24.210285-54.381714c0-20.662857 8.630857-40.082286 24.137142-54.454857a82.688 82.688 0 0 1 56.576-21.833143c17.188571 0 33.609143 5.010286 47.36 14.409143a83.638857 83.638857 0 0 1 47.177143-14.336zM512 525.714286L793.6 314.514286a18.285714 18.285714 0 0 1 21.942857 29.257143l-292.571428 219.428571a18.285714 18.285714 0 0 1-21.942858 0l-292.571428-219.428571a18.285714 18.285714 0 0 1 21.942857-29.257143l281.6 211.2z m329.362286 184.173714l42.130285-39.058286c8.155429-7.570286 12.507429-17.334857 12.507429-27.574857 0-10.422857-4.315429-20.114286-12.434286-27.684571a46.299429 46.299429 0 0 0-31.707428-12.068572c-10.971429 0-21.138286 3.474286-29.293715 9.947429l-6.619428 5.229714a18.285714 18.285714 0 0 1-22.784 0l-6.582857-5.302857c-8.045714-6.436571-18.285714-9.947429-29.257143-9.947429-12.178286 0-23.332571 4.278857-31.744 12.068572a37.302857 37.302857 0 0 0-12.434286 27.648c0 10.313143 4.352 20.004571 12.507429 27.574857l42.166857 39.131429c7.570286 7.021714 19.858286 18.176 36.790857 33.499428 16.932571-15.286857 29.184-26.477714 36.754286-33.462857z" /></svg>
