<?xml version="1.0" standalone="no"?><!DOCTYPE svg PUBLIC "-//W3C//DTD SVG 1.1//EN" "http://www.w3.org/Graphics/SVG/1.1/DTD/svg11.dtd"><svg class="icon" width="200px" height="200.00px" viewBox="0 0 1024 1024" version="1.1" xmlns="http://www.w3.org/2000/svg"><path d="M566.857143 386.413714V256a18.285714 18.285714 0 0 1 31.232-12.946286l256 256a18.285714 18.285714 0 0 1 0 25.892572l-256 256A18.285714 18.285714 0 0 1 566.857143 768v-128.731429l-43.264 0.146286a501.394286 501.394286 0 0 0-328.704 124.050286c-14.153143 12.434286-35.547429-2.084571-29.257143-19.821714l11.556571-32.841143a495.36 495.36 0 0 1 389.668572-324.388572z m36.571428 337.444572L815.286857 512 603.428571 300.141714V402.285714a18.285714 18.285714 0 0 1-16.018285 18.139429 458.788571 458.788571 0 0 0-365.348572 275.894857 537.965714 537.965714 0 0 1 301.421715-93.476571l61.622857-0.182858a18.285714 18.285714 0 0 1 18.322285 18.285715v102.912z" /></svg>
