<?xml version="1.0" standalone="no"?><!DOCTYPE svg PUBLIC "-//W3C//DTD SVG 1.1//EN" "http://www.w3.org/Graphics/SVG/1.1/DTD/svg11.dtd"><svg class="icon" width="200px" height="200.00px" viewBox="0 0 1024 1024" version="1.1" xmlns="http://www.w3.org/2000/svg"><path d="M804.571429 822.857143a18.285714 18.285714 0 1 1 0 36.571428H219.428571a18.285714 18.285714 0 0 1-18.285714-18.285714 310.857143 310.857143 0 0 1 357.851429-307.309714 18.285714 18.285714 0 0 1-5.485715 36.132571A274.285714 274.285714 0 0 0 238.299429 822.857143H804.571429z m-146.285715-182.857143a18.285714 18.285714 0 1 1 0-36.571429h182.857143a18.285714 18.285714 0 1 1 0 36.571429h-182.857143z m0-109.714286a18.285714 18.285714 0 1 1 0-36.571428h182.857143a18.285714 18.285714 0 1 1 0 36.571428h-182.857143z m0 219.428572a18.285714 18.285714 0 1 1 0-36.571429h182.857143a18.285714 18.285714 0 1 1 0 36.571429h-182.857143z m-146.285714-256a164.571429 164.571429 0 1 1 0-329.142857 164.571429 164.571429 0 0 1 0 329.142857z m0-36.571429a128 128 0 1 0 0-256 128 128 0 0 0 0 256z" /></svg>
