<?xml version="1.0" standalone="no"?><!DOCTYPE svg PUBLIC "-//W3C//DTD SVG 1.1//EN" "http://www.w3.org/Graphics/SVG/1.1/DTD/svg11.dtd"><svg class="icon" width="200px" height="200.00px" viewBox="0 0 1024 1024" version="1.1" xmlns="http://www.w3.org/2000/svg"><path d="M778.678857 776.704a272.018286 272.018286 0 0 0-6.363428-22.198857 18.285714 18.285714 0 1 1 34.742857-11.556572A308.589714 308.589714 0 0 1 822.857143 841.142857a18.285714 18.285714 0 0 1-18.285714 18.285714H219.428571a18.285714 18.285714 0 0 1-18.285714-18.285714 310.857143 310.857143 0 0 1 357.851429-307.309714 18.285714 18.285714 0 0 1-5.485715 36.132571A274.285714 274.285714 0 0 0 238.299429 822.857143h547.401142a273.883429 273.883429 0 0 0-7.021714-46.153143zM512 493.714286a164.571429 164.571429 0 1 1 0-329.142857 164.571429 164.571429 0 0 1 0 329.142857z m0-36.571429a128 128 0 1 0 0-256 128 128 0 0 0 0 256z m219.428571 91.428572v-91.428572a18.285714 18.285714 0 1 1 36.571429 0V548.571429h91.428571a18.285714 18.285714 0 0 1 0 36.571428H768v91.428572a18.285714 18.285714 0 1 1-36.571429 0V585.142857h-91.428571a18.285714 18.285714 0 1 1 0-36.571428H731.428571z" /></svg>
