<?xml version="1.0" standalone="no"?><!DOCTYPE svg PUBLIC "-//W3C//DTD SVG 1.1//EN" "http://www.w3.org/Graphics/SVG/1.1/DTD/svg11.dtd"><svg class="icon" width="200px" height="200.00px" viewBox="0 0 1024 1024" version="1.1" xmlns="http://www.w3.org/2000/svg"><path d="M760.502857 724.845714a273.188571 273.188571 0 0 0-5.814857-11.629714 18.285714 18.285714 0 0 1 32.329143-17.078857A309.76 309.76 0 0 1 822.857143 841.142857a18.285714 18.285714 0 0 1-18.285714 18.285714H219.428571a18.285714 18.285714 0 0 1-18.285714-18.285714 310.857143 310.857143 0 0 1 346.294857-308.845714 18.285714 18.285714 0 1 1-4.132571 36.315428 274.285714 274.285714 0 0 0-305.005714 254.244572h547.401142a272.530286 272.530286 0 0 0-25.234285-98.011429z m67.693714-225.792a18.285714 18.285714 0 0 1 25.892572 25.892572l-146.285714 146.285714a18.285714 18.285714 0 0 1-25.892572 0l-73.142857-73.142857a18.285714 18.285714 0 0 1 25.892571-25.892572L694.857143 632.429714l133.339428-133.376zM512 493.714286a164.571429 164.571429 0 1 1 0-329.142857 164.571429 164.571429 0 0 1 0 329.142857z m0-36.571429a128 128 0 1 0 0-256 128 128 0 0 0 0 256z" /></svg>
