<?xml version="1.0" standalone="no"?><!DOCTYPE svg PUBLIC "-//W3C//DTD SVG 1.1//EN" "http://www.w3.org/Graphics/SVG/1.1/DTD/svg11.dtd"><svg class="icon" width="200px" height="200.00px" viewBox="0 0 1024 1024" version="1.1" xmlns="http://www.w3.org/2000/svg"><path d="M774.875429 762.514286a18.285714 18.285714 0 0 1 35.035428-10.459429A310.857143 310.857143 0 0 1 822.857143 841.142857a18.285714 18.285714 0 0 1-18.285714 18.285714H219.428571a18.285714 18.285714 0 0 1-18.285714-18.285714 310.857143 310.857143 0 0 1 346.294857-308.845714 18.285714 18.285714 0 1 1-4.132571 36.315428 274.285714 274.285714 0 0 0-305.005714 254.244572h547.401142a273.334857 273.334857 0 0 0-10.825142-60.342857z m3.84-268.726857c21.504 0 41.874286 8.411429 57.051428 23.698285 15.250286 15.250286 23.661714 35.584 23.661714 57.234286 0 21.504-8.448 41.874286-23.734857 57.124571L793.6 674.011429c-9.435429 9.472-25.892571 25.6-49.371429 48.457142a18.285714 18.285714 0 0 1-25.526857 0 5821.769143 5821.769143 0 0 1-49.371428-48.493714l-42.166857-42.203428a80.384 80.384 0 0 1-23.734858-57.161143c0-21.613714 8.411429-41.984 23.625143-57.234286a80.128 80.128 0 0 1 57.088-23.661714c17.188571 0 33.645714 5.339429 47.36 15.286857 13.714286-9.874286 30.061714-15.213714 47.177143-15.213714z m-10.971429 154.404571l42.057143-42.166857c8.448-8.411429 13.056-19.529143 13.056-31.305143 0-11.958857-4.571429-23.04-12.946286-31.414857a43.702857 43.702857 0 0 0-31.195428-12.946286c-10.678857 0-20.662857 3.693714-28.781715 10.605714l-6.582857 5.668572a18.285714 18.285714 0 0 1-23.844571-0.036572l-6.582857-5.705142a43.593143 43.593143 0 0 0-28.781715-10.605715c-11.849143 0-22.820571 4.534857-31.195428 12.946286-8.411429 8.411429-12.946286 19.456-12.946286 31.378286 0 11.849143 4.571429 22.857143 13.019429 31.305143l42.166857 42.203428c7.497143 7.533714 19.602286 19.419429 36.278857 35.730286 16.676571-16.274286 28.781714-28.16 36.242286-35.657143zM512 493.714286a164.571429 164.571429 0 1 1 0-329.142857 164.571429 164.571429 0 0 1 0 329.142857z m0-36.571429a128 128 0 1 0 0-256 128 128 0 0 0 0 256z" /></svg>
