<?xml version="1.0" standalone="no"?><!DOCTYPE svg PUBLIC "-//W3C//DTD SVG 1.1//EN" "http://www.w3.org/Graphics/SVG/1.1/DTD/svg11.dtd"><svg class="icon" width="200px" height="200.00px" viewBox="0 0 1024 1024" version="1.1" xmlns="http://www.w3.org/2000/svg"><path d="M512 566.857143a274.285714 274.285714 0 0 0-273.700571 256h547.401142a274.285714 274.285714 0 0 0-273.700571-256z m0-36.571429a310.857143 310.857143 0 0 1 310.857143 310.857143 18.285714 18.285714 0 0 1-18.285714 18.285714H219.428571a18.285714 18.285714 0 0 1-18.285714-18.285714 310.857143 310.857143 0 0 1 310.857143-310.857143z m0-36.571428a164.571429 164.571429 0 1 1 0-329.142857 164.571429 164.571429 0 0 1 0 329.142857z m0-36.571429a128 128 0 1 0 0-256 128 128 0 0 0 0 256z" /></svg>
