<?xml version="1.0" standalone="no"?><!DOCTYPE svg PUBLIC "-//W3C//DTD SVG 1.1//EN" "http://www.w3.org/Graphics/SVG/1.1/DTD/svg11.dtd"><svg class="icon" width="200px" height="200.00px" viewBox="0 0 1024 1024" version="1.1" xmlns="http://www.w3.org/2000/svg"><path d="M436.004571 665.892571L315.574857 874.422857a18.285714 18.285714 0 0 1-33.499428-4.388571l-35.401143-132.205715-132.205715 35.401143a18.285714 18.285714 0 0 1-20.589714-26.806857l153.453714-265.764571a18.468571 18.468571 0 0 1 1.206858-1.828572 274.285714 274.285714 0 1 1 526.921142 0 18.651429 18.651429 0 0 1 0.219429 0.365715l154.294857 267.227428a18.285714 18.285714 0 0 1-20.589714 26.806857l-132.205714-35.401143-35.401143 132.205715a18.285714 18.285714 0 0 1-33.499429 4.388571l-120.393143-208.457143c-24.100571 6.912-49.554286 10.605714-75.885714 10.605715a274.432 274.432 0 0 1-75.995429-10.678858z m-170.605714-143.36l-117.76 203.958858 107.227429-28.745143a18.285714 18.285714 0 0 1 22.381714 12.946285l28.745143 107.227429 95.085714-164.717714a275.382857 275.382857 0 0 1-135.68-130.706286z m357.412572 130.742858l95.085714 164.644571 28.708571-107.227429a18.285714 18.285714 0 0 1 22.381715-12.946285l107.227428 28.745143-117.686857-203.849143a275.382857 275.382857 0 0 1-135.716571 130.633143zM512 640a237.714286 237.714286 0 1 0 0-475.428571 237.714286 237.714286 0 0 0 0 475.428571z m-18.285714-313.270857l-26.441143 17.627428a18.285714 18.285714 0 1 1-20.260572-30.427428l54.857143-36.571429A18.285714 18.285714 0 0 1 530.285714 292.571429v219.428571a18.285714 18.285714 0 1 1-36.571428 0V326.729143z" /></svg>
