<?xml version="1.0" standalone="no"?><!DOCTYPE svg PUBLIC "-//W3C//DTD SVG 1.1//EN" "http://www.w3.org/Graphics/SVG/1.1/DTD/svg11.dtd"><svg class="icon" width="200px" height="200.00px" viewBox="0 0 1024 1024" version="1.1" xmlns="http://www.w3.org/2000/svg"><path d="M292.790857 242.468571l58.148572 11.337143a18.285714 18.285714 0 1 1-7.021715 35.84l-93.988571-18.285714a18.285714 18.285714 0 0 1-9.472-30.902857A382.793143 382.793143 0 0 1 512 128c212.077714 0 384 171.922286 384 384a382.902857 382.902857 0 0 1-29.147429 147.017143 18.285714 18.285714 0 1 1-33.792-14.043429A346.331429 346.331429 0 0 0 859.428571 512 347.428571 347.428571 0 0 0 512 164.571429a345.965714 345.965714 0 0 0-219.209143 77.897142zM530.285714 603.428571V658.285714a18.285714 18.285714 0 1 1-36.571428 0v-54.857143h-36.571429a18.285714 18.285714 0 1 1 0-36.571428H548.571429a18.285714 18.285714 0 1 0 0-36.571429h-73.142858a54.857143 54.857143 0 0 1 0-109.714285h18.285715V365.714286a18.285714 18.285714 0 1 1 36.571428 0v54.857143h36.571429a18.285714 18.285714 0 1 1 0 36.571428H475.428571a18.285714 18.285714 0 1 0 0 36.571429h73.142858a54.857143 54.857143 0 0 1 0 109.714285h-18.285715z m142.774857 166.765715a18.285714 18.285714 0 1 1 7.021715-35.84l93.988571 18.285714a18.285714 18.285714 0 0 1 9.472 30.902857A382.793143 382.793143 0 0 1 512 896C299.922286 896 128 724.077714 128 512c0-51.090286 9.984-100.790857 29.147429-147.017143a18.285714 18.285714 0 1 1 33.792 14.043429A346.331429 346.331429 0 0 0 164.571429 512a347.428571 347.428571 0 0 0 347.428571 347.428571 345.965714 345.965714 0 0 0 219.209143-77.897142l-58.148572-11.337143z" /></svg>
