<?xml version="1.0" standalone="no"?><!DOCTYPE svg PUBLIC "-//W3C//DTD SVG 1.1//EN" "http://www.w3.org/Graphics/SVG/1.1/DTD/svg11.dtd"><svg class="icon" width="200px" height="200.00px" viewBox="0 0 1024 1024" version="1.1" xmlns="http://www.w3.org/2000/svg"><path d="M385.572571 448l-14.518857-14.482286a18.285714 18.285714 0 0 1 25.892572-25.892571l14.482285 14.518857 14.482286-14.518857a18.285714 18.285714 0 0 1 25.892572 25.892571l-14.518858 14.482286 14.518858 14.482286a18.285714 18.285714 0 0 1-25.892572 25.892571l-14.482286-14.518857-14.482285 14.518857a18.285714 18.285714 0 0 1-25.892572-25.892571l14.518857-14.482286z m201.142858 0l-14.518858-14.482286a18.285714 18.285714 0 0 1 25.892572-25.892571l14.482286 14.518857 14.482285-14.518857a18.285714 18.285714 0 0 1 25.892572 25.892571l-14.518857 14.482286 14.518857 14.482286a18.285714 18.285714 0 0 1-25.892572 25.892571l-14.482285-14.518857-14.482286 14.518857a18.285714 18.285714 0 0 1-25.892572-25.892571l14.518858-14.482286zM109.714286 502.857143C109.714286 305.371429 290.304 146.285714 512 146.285714s402.285714 159.085714 402.285714 356.571429-180.589714 356.571429-402.285714 356.571428c-44.141714 0-87.332571-6.290286-128.365714-18.541714a18.285714 18.285714 0 0 1 10.459428-35.035428c37.632 11.227429 77.312 17.005714 117.906286 17.005714 202.459429 0 365.714286-143.835429 365.714286-320S714.459429 182.857143 512 182.857143 146.285714 326.692571 146.285714 502.857143c0 74.057143 28.854857 144.274286 81.042286 200.850286a18.285714 18.285714 0 0 1 3.291429 19.748571c-14.994286 33.938286-34.084571 62.537143-57.197715 85.686857 48.64 1.462857 88.429714-10.569143 120.064-35.693714a18.285714 18.285714 0 1 1 22.747429 28.635428C267.081143 841.142857 202.971429 853.869714 124.964571 840.886857a18.285714 18.285714 0 0 1-7.094857-33.243428c30.793143-20.516571 55.552-49.883429 74.349715-88.356572C139.117714 657.737143 109.714286 582.326857 109.714286 502.857143z m304.237714 132.937143a18.285714 18.285714 0 0 1-23.332571-28.16c32.841143-27.209143 73.545143-40.777143 121.380571-40.777143 47.835429 0 88.539429 13.568 121.380571 40.777143a18.285714 18.285714 0 0 1-23.332571 28.16c-26.038857-21.577143-58.441143-32.365714-98.048-32.365715s-72.045714 10.825143-98.048 32.365715z" /></svg>
