<?xml version="1.0" standalone="no"?><!DOCTYPE svg PUBLIC "-//W3C//DTD SVG 1.1//EN" "http://www.w3.org/Graphics/SVG/1.1/DTD/svg11.dtd"><svg class="icon" width="200px" height="200.00px" viewBox="0 0 1024 1024" version="1.1" xmlns="http://www.w3.org/2000/svg"><path d="M128 530.285714c0-202.422857 180.48-365.714286 402.285714-365.714285s402.285714 163.291429 402.285715 365.714285-180.48 365.714286-402.285715 365.714286c-44.178286 0-87.405714-6.473143-128.512-19.017143a18.285714 18.285714 0 0 1 10.715429-34.998857c37.595429 11.52 77.238857 17.444571 117.796571 17.444571 202.349714 0 365.714286-147.785143 365.714286-329.142857s-163.364571-329.142857-365.714286-329.142857-365.714286 147.785143-365.714285 329.142857c0 76.288 28.891429 148.589714 81.188571 206.774857a18.285714 18.285714 0 0 1 3.218286 19.456c-15.177143 35.254857-34.56 64.914286-58.075429 88.795429 48.896 1.645714 88.905143-10.642286 120.685714-36.571429a18.285714 18.285714 0 1 1 23.113143 28.306286c-49.188571 40.155429-113.481143 53.284571-191.488 39.899429a18.285714 18.285714 0 0 1-7.241143-33.097143c30.939429-21.211429 55.844571-51.565714 74.715429-91.428572C157.476571 689.298286 128 611.84 128 530.285714z m274.285714-73.142857a18.285714 18.285714 0 1 1 0-36.571428h219.428572a18.285714 18.285714 0 1 1 0 36.571428h-219.428572z m0 73.142857a18.285714 18.285714 0 1 1 0-36.571428h219.428572a18.285714 18.285714 0 1 1 0 36.571428h-219.428572z m0 73.142857a18.285714 18.285714 0 1 1 0-36.571428h109.714286a18.285714 18.285714 0 1 1 0 36.571428h-109.714286z" /></svg>
