<?xml version="1.0" standalone="no"?><!DOCTYPE svg PUBLIC "-//W3C//DTD SVG 1.1//EN" "http://www.w3.org/Graphics/SVG/1.1/DTD/svg11.dtd"><svg class="icon" width="200px" height="200.00px" viewBox="0 0 1024 1024" version="1.1" xmlns="http://www.w3.org/2000/svg"><path d="M271.213714 448.987429a18.285714 18.285714 0 0 1-30.427428-20.260572l146.285714-219.428571A18.285714 18.285714 0 0 1 420.571429 219.428571v585.142858a18.285714 18.285714 0 1 1-36.571429 0V279.808l-112.786286 169.179429zM640 744.228571l112.786286-169.179428a18.285714 18.285714 0 1 1 30.427428 20.260571l-146.285714 219.428572A18.285714 18.285714 0 0 1 603.428571 804.571429V219.428571a18.285714 18.285714 0 1 1 36.571429 0v524.763429z" /></svg>
