<?xml version="1.0" standalone="no"?><!DOCTYPE svg PUBLIC "-//W3C//DTD SVG 1.1//EN" "http://www.w3.org/Graphics/SVG/1.1/DTD/svg11.dtd"><svg class="icon" width="200px" height="200.00px" viewBox="0 0 1024 1024" version="1.1" xmlns="http://www.w3.org/2000/svg"><path d="M274.285714 457.142857h-109.714285v402.285714h109.714285v-402.285714z m36.571429 0v402.285714h548.571428v-402.285714h-548.571428z m-164.571429-36.571428h731.428572a18.285714 18.285714 0 0 1 18.285714 18.285714v438.857143a18.285714 18.285714 0 0 1-18.285714 18.285714H146.285714a18.285714 18.285714 0 0 1-18.285714-18.285714V438.857143a18.285714 18.285714 0 0 1 18.285714-18.285714z m18.285715-256V329.142857a18.285714 18.285714 0 0 1-36.571429 0V146.285714a18.285714 18.285714 0 0 1 18.285714-18.285714h438.857143a18.285714 18.285714 0 0 1 18.285714 18.285714v182.857143a18.285714 18.285714 0 1 1-36.571428 0V164.571429h-402.285714z m656.420571 134.144a275.456 275.456 0 0 0-130.852571-113.371429 18.285714 18.285714 0 1 1 14.006857-33.755429 311.296 311.296 0 0 1 147.053714 126.427429l7.021714-26.112a18.285714 18.285714 0 0 1 35.291429 9.472l-18.907429 70.656a18.285714 18.285714 0 0 1-22.418285 12.909714l-70.619429-18.907428a18.285714 18.285714 0 1 1 9.435429-35.328l29.988571 8.045714zM201.142857 621.714286a18.285714 18.285714 0 1 1 36.571429 0v73.142857a18.285714 18.285714 0 1 1-36.571429 0v-73.142857z" /></svg>
