<?xml version="1.0" standalone="no"?><!DOCTYPE svg PUBLIC "-//W3C//DTD SVG 1.1//EN" "http://www.w3.org/Graphics/SVG/1.1/DTD/svg11.dtd"><svg class="icon" width="200px" height="200.00px" viewBox="0 0 1024 1024" version="1.1" xmlns="http://www.w3.org/2000/svg"><path d="M566.857143 713.142857v-548.571428h-402.285714v548.571428h402.285714z m0 36.571429h-402.285714v109.714285h402.285714v-109.714285zM146.285714 128h438.857143a18.285714 18.285714 0 0 1 18.285714 18.285714v731.428572a18.285714 18.285714 0 0 1-18.285714 18.285714H146.285714a18.285714 18.285714 0 0 1-18.285714-18.285714V146.285714a18.285714 18.285714 0 0 1 18.285714-18.285714z m577.389715 74.057143L731.428571 231.131429a18.285714 18.285714 0 1 1-35.328 9.472l-18.944-70.656a18.285714 18.285714 0 0 1 12.946286-22.381715l70.619429-18.944a18.285714 18.285714 0 0 1 9.508571 35.328l-26.989714 7.241143a312.027429 312.027429 0 0 1 129.097143 148.662857 18.285714 18.285714 0 1 1-33.755429 14.006857 274.724571 274.724571 0 0 0-114.944-131.803428zM859.428571 457.142857H694.857143a18.285714 18.285714 0 1 1 0-36.571428h182.857143a18.285714 18.285714 0 0 1 18.285714 18.285714v438.857143a18.285714 18.285714 0 0 1-18.285714 18.285714h-182.857143a18.285714 18.285714 0 1 1 0-36.571429h164.571428v-402.285714zM329.142857 822.857143a18.285714 18.285714 0 1 1 0-36.571429h73.142857a18.285714 18.285714 0 1 1 0 36.571429H329.142857z" /></svg>
