<?xml version="1.0" standalone="no"?><!DOCTYPE svg PUBLIC "-//W3C//DTD SVG 1.1//EN" "http://www.w3.org/Graphics/SVG/1.1/DTD/svg11.dtd"><svg class="icon" width="200px" height="200.00px" viewBox="0 0 1024 1024" version="1.1" xmlns="http://www.w3.org/2000/svg"><path d="M364.653714 659.346286a543.268571 543.268571 0 0 0 91.282286 73.874285l43.410286-68.754285a18.285714 18.285714 0 0 1 23.661714-6.582857l180.041143 90.002285a18.285714 18.285714 0 0 1 8.777143 23.149715l-59.977143 150.052571a18.285714 18.285714 0 0 1-20.114286 11.227429c-139.264-23.917714-258.267429-85.138286-356.571428-183.442286-98.340571-98.340571-159.561143-217.344-183.478858-356.608a18.285714 18.285714 0 0 1 11.227429-20.114286l150.052571-59.977143a18.285714 18.285714 0 0 1 23.149715 8.777143L366.08 501.028571a18.285714 18.285714 0 0 1-6.582857 23.661715l-68.754286 43.410285a543.268571 543.268571 0 0 0 73.874286 91.282286zM477.184 768a18.285714 18.285714 0 0 1-24.758857 5.961143 574.025143 574.025143 0 0 1-113.627429-88.758857c-35.108571-35.108571-64.731429-72.996571-88.758857-113.627429A18.285714 18.285714 0 0 1 256 546.816l70.034286-44.251429L250.88 352.365714l-120.539429 48.201143c24.32 125.586286 81.115429 232.923429 170.605715 322.450286 89.526857 89.490286 196.864 146.285714 322.450285 170.605714l48.201143-120.539428-150.198857-75.117715L477.184 768z m2.669714-201.691429a18.285714 18.285714 0 0 1-22.162285-22.162285l26.294857-105.179429a237.714286 237.714286 0 1 1 101.046857 101.046857l-105.179429 26.331429z m103.204572-63.488a18.285714 18.285714 0 0 1 13.385143 1.828572 201.142857 201.142857 0 1 0-77.056-77.056 18.285714 18.285714 0 0 1 1.828571 13.348571l-20.662857 82.505143 82.505143-20.626286zM621.714286 274.285714a18.285714 18.285714 0 1 1 0-36.571428h146.285714a18.285714 18.285714 0 1 1 0 36.571428h-146.285714z m0 73.142857a18.285714 18.285714 0 1 1 0-36.571428h147.419428a18.285714 18.285714 0 0 1 0 36.571428H621.714286z m0 73.142858a18.285714 18.285714 0 1 1 0-36.571429h73.142857a18.285714 18.285714 0 1 1 0 36.571429h-73.142857z" /></svg>
