<?xml version="1.0" standalone="no"?><!DOCTYPE svg PUBLIC "-//W3C//DTD SVG 1.1//EN" "http://www.w3.org/Graphics/SVG/1.1/DTD/svg11.dtd"><svg class="icon" width="200px" height="200.00px" viewBox="0 0 1024 1024" version="1.1" xmlns="http://www.w3.org/2000/svg"><path d="M182.857143 164.571429h658.285714a18.285714 18.285714 0 0 1 18.285714 18.285714v658.285714a18.285714 18.285714 0 0 1-18.285714 18.285714H182.857143a18.285714 18.285714 0 0 1-18.285714-18.285714V182.857143a18.285714 18.285714 0 0 1 18.285714-18.285714z m18.285714 36.571428v621.714286h621.714286v-621.714286h-621.714286z m140.946286 579.803429a18.285714 18.285714 0 0 1-25.892572-25.892572l310.857143-310.857143a18.285714 18.285714 0 0 1 25.892572 0l128 128a18.285714 18.285714 0 0 1-25.892572 25.892572L640 482.998857l-297.910857 297.947429zM384 457.142857a73.142857 73.142857 0 1 1 0-146.285714 73.142857 73.142857 0 0 1 0 146.285714z m0-36.571428a36.571429 36.571429 0 1 0 0-73.142858 36.571429 36.571429 0 0 0 0 73.142858z" /></svg>
