<?xml version="1.0" standalone="no"?><!DOCTYPE svg PUBLIC "-//W3C//DTD SVG 1.1//EN" "http://www.w3.org/Graphics/SVG/1.1/DTD/svg11.dtd"><svg class="icon" width="200px" height="200.00px" viewBox="0 0 1024 1024" version="1.1" xmlns="http://www.w3.org/2000/svg"><path d="M395.593143 620.836571l-116.370286-116.370285a18.285714 18.285714 0 0 1 0-25.892572l51.748572-51.712a18.285714 18.285714 0 0 1 12.946285-5.376h95.853715l188.598857-188.598857-12.946286-12.909714a18.285714 18.285714 0 1 1 25.892571-25.856l25.819429 25.819428 0.073143 0.073143 155.062857 155.062857 0.036571 0.036572 0.036572 0.036571 25.819428 25.819429a18.285714 18.285714 0 1 1-25.856 25.892571l-12.909714-12.946285-188.598857 188.598857v95.853714a18.285714 18.285714 0 0 1-5.376 12.946286l-51.712 51.748571a18.285714 18.285714 0 0 1-25.892571 0l-116.370286-116.370286-116.297143 116.333715a18.285714 18.285714 0 0 1-25.892571-25.856l116.333714-116.333715z m37.997714-13.750857a18.578286 18.578286 0 0 1 1.609143 1.609143l115.565714 115.565714 33.462857-33.462857v-95.853714a18.285714 18.285714 0 0 1 5.339429-12.946286l193.974857-193.938285-129.316571-129.316572-193.938286 193.974857a18.285714 18.285714 0 0 1-12.946286 5.339429H351.488l-33.462857 33.462857 115.565714 115.565714z" /></svg>
