<?xml version="1.0" standalone="no"?><!DOCTYPE svg PUBLIC "-//W3C//DTD SVG 1.1//EN" "http://www.w3.org/Graphics/SVG/1.1/DTD/svg11.dtd"><svg class="icon" width="200px" height="200.00px" viewBox="0 0 1024 1024" version="1.1" xmlns="http://www.w3.org/2000/svg"><path d="M493.714286 676.608H329.142857a18.285714 18.285714 0 0 1-18.285714-18.285714V585.142857a18.285714 18.285714 0 0 1 5.339428-12.946286l67.803429-67.766857V237.714286H365.714286a18.285714 18.285714 0 1 1 0-36.571429h292.571428a18.285714 18.285714 0 1 1 0 36.571429h-18.285714v266.715428l67.803429 67.766857A18.285714 18.285714 0 0 1 713.142857 585.142857v73.179429a18.285714 18.285714 0 0 1-18.285714 18.285714h-164.571429V841.142857a18.285714 18.285714 0 0 1-36.571428 0v-164.534857z m17.115428-36.571429a18.578286 18.578286 0 0 1 2.340572 0H676.571429v-47.323428l-67.803429-67.766857A18.285714 18.285714 0 0 1 603.428571 512V237.714286h-182.857142V512a18.285714 18.285714 0 0 1-5.339429 12.946286L347.428571 592.713143v47.323428h163.401143z" /></svg>
