<?xml version="1.0" standalone="no"?><!DOCTYPE svg PUBLIC "-//W3C//DTD SVG 1.1//EN" "http://www.w3.org/Graphics/SVG/1.1/DTD/svg11.dtd"><svg class="icon" width="200px" height="200.00px" viewBox="0 0 1024 1024" version="1.1" xmlns="http://www.w3.org/2000/svg"><path d="M682.788571 164.571429H341.211429a375.442286 375.442286 0 0 1-54.418286 84.992 332.361143 332.361143 0 0 1-37.229714 37.229714 375.442286 375.442286 0 0 1-84.041143 53.979428 708.973714 708.973714 0 0 0 12.507428 78.153143c14.884571 68.608 39.131429 137.216 74.898286 201.069715C312.246857 725.942857 397.165714 808.118857 512 857.856c114.870857-49.737143 199.753143-131.913143 259.072-237.860571 35.730286-63.853714 60.013714-132.461714 74.898286-201.033143a708.973714 708.973714 0 0 0 12.507428-78.189715 375.442286 375.442286 0 0 1-84.041143-53.979428 332.361143 332.361143 0 0 1-37.229714-37.229714A375.442286 375.442286 0 0 1 682.788571 164.571429zM512 128h182.857143a18.285714 18.285714 0 0 1 17.115428 11.812571c1.865143 5.010286 6.034286 14.262857 12.507429 26.404572a339.2 339.2 0 0 0 40.557714 59.611428 295.826286 295.826286 0 0 0 33.133715 33.133715c18.907429 16.164571 39.277714 29.622857 59.611428 40.557714 12.105143 6.473143 21.394286 10.605714 26.404572 12.507429a18.285714 18.285714 0 0 1 11.776 17.92c-0.219429 5.12-0.950857 14.372571-2.450286 27.099428a745.398857 745.398857 0 0 1-11.812572 69.668572c-15.579429 71.899429-41.069714 143.835429-78.738285 211.126857-64.292571 114.907429-157.44 203.995429-283.940572 256.731428a18.212571 18.212571 0 0 1-14.08 0c-126.464-52.736-219.611429-141.824-283.904-256.731428-37.668571-67.291429-63.158857-139.227429-78.738285-211.126857a745.398857 745.398857 0 0 1-11.812572-69.668572 405.211429 405.211429 0 0 1-2.486857-27.062857 18.285714 18.285714 0 0 1 11.812571-17.92c5.010286-1.901714 14.262857-6.070857 26.404572-12.544a339.2 339.2 0 0 0 59.611428-40.557714 295.826286 295.826286 0 0 0 33.133715-33.133715 339.2 339.2 0 0 0 40.557714-59.611428c6.473143-12.105143 10.605714-21.394286 12.507429-26.404572A18.285714 18.285714 0 0 1 329.142857 128h182.857143zM493.714286 256a18.285714 18.285714 0 1 1 36.571428 0v438.857143a18.285714 18.285714 0 1 1-36.571428 0V256z m-146.285715 73.142857a18.285714 18.285714 0 0 1 36.571429 0v256a18.285714 18.285714 0 1 1-36.571429 0V329.142857z m292.571429 0a18.285714 18.285714 0 1 1 36.571429 0v256a18.285714 18.285714 0 1 1-36.571429 0V329.142857z" /></svg>
