<?xml version="1.0" standalone="no"?><!DOCTYPE svg PUBLIC "-//W3C//DTD SVG 1.1//EN" "http://www.w3.org/Graphics/SVG/1.1/DTD/svg11.dtd"><svg class="icon" width="200px" height="200.00px" viewBox="0 0 1024 1024" version="1.1" xmlns="http://www.w3.org/2000/svg"><path d="M237.714286 237.714286v182.857143h182.857143v-182.857143h-182.857143z m-18.285715-36.571429h219.428572a18.285714 18.285714 0 0 1 18.285714 18.285714v219.428572a18.285714 18.285714 0 0 1-18.285714 18.285714H219.428571a18.285714 18.285714 0 0 1-18.285714-18.285714V219.428571a18.285714 18.285714 0 0 1 18.285714-18.285714z m18.285715 402.285714v182.857143h182.857143v-182.857143h-182.857143z m-18.285715-36.571428h219.428572a18.285714 18.285714 0 0 1 18.285714 18.285714v219.428572a18.285714 18.285714 0 0 1-18.285714 18.285714H219.428571a18.285714 18.285714 0 0 1-18.285714-18.285714v-219.428572a18.285714 18.285714 0 0 1 18.285714-18.285714z m384-329.142857v182.857143h182.857143v-182.857143h-182.857143z m-18.285714-36.571429h219.428572a18.285714 18.285714 0 0 1 18.285714 18.285714v219.428572a18.285714 18.285714 0 0 1-18.285714 18.285714h-219.428572a18.285714 18.285714 0 0 1-18.285714-18.285714V219.428571a18.285714 18.285714 0 0 1 18.285714-18.285714z m-73.142857 402.285714a18.285714 18.285714 0 1 1 0-36.571428h73.142857a18.285714 18.285714 0 1 1 0 36.571428h-73.142857z m219.428571 0a18.285714 18.285714 0 1 1 0-36.571428h73.142858a18.285714 18.285714 0 1 1 0 36.571428h-73.142858zM493.714286 658.285714a18.285714 18.285714 0 1 1 36.571428 0v146.285715a18.285714 18.285714 0 1 1-36.571428 0v-146.285715z m182.857143 54.857143H731.428571a18.285714 18.285714 0 1 1 0 36.571429h-73.142857a18.285714 18.285714 0 0 1-18.285714-18.285715v-73.142857a18.285714 18.285714 0 1 1 36.571429 0v54.857143z m109.714285 73.142857V731.428571a18.285714 18.285714 0 1 1 36.571429 0v73.142858a18.285714 18.285714 0 0 1-18.285714 18.285714h-219.428572a18.285714 18.285714 0 1 1 0-36.571429h201.142857z m-54.857143-109.714285a18.285714 18.285714 0 1 1 0-36.571429h73.142858a18.285714 18.285714 0 1 1 0 36.571429h-73.142858z m-512-146.285715a18.285714 18.285714 0 1 1 0-36.571428h365.714286a18.285714 18.285714 0 1 1 0 36.571428H219.428571z m347.428572 128a18.285714 18.285714 0 1 1 36.571428 0v73.142857a18.285714 18.285714 0 1 1-36.571428 0v-73.142857z m-73.142857-438.857143a18.285714 18.285714 0 1 1 36.571428 0v109.714286a18.285714 18.285714 0 1 1-36.571428 0V219.428571z m0 182.857143a18.285714 18.285714 0 1 1 36.571428 0v36.571429a18.285714 18.285714 0 1 1-36.571428 0v-36.571429z m182.857143 182.857143a18.285714 18.285714 0 1 1-36.571429 0v-73.142857a18.285714 18.285714 0 1 1 36.571429 0v73.142857z m54.857142-54.857143a18.285714 18.285714 0 1 1 0-36.571428h73.142858a18.285714 18.285714 0 1 1 0 36.571428h-73.142858z" /></svg>
