<?xml version="1.0" standalone="no"?><!DOCTYPE svg PUBLIC "-//W3C//DTD SVG 1.1//EN" "http://www.w3.org/Graphics/SVG/1.1/DTD/svg11.dtd"><svg class="icon" width="200px" height="200.00px" viewBox="0 0 1024 1024" version="1.1" xmlns="http://www.w3.org/2000/svg"><path d="M237.714286 237.714286V365.714286a18.285714 18.285714 0 1 1-36.571429 0V219.428571a18.285714 18.285714 0 0 1 18.285714-18.285714h585.142858a18.285714 18.285714 0 0 1 18.285714 18.285714v146.285715a18.285714 18.285714 0 1 1-36.571429 0V237.714286h-548.571428z m0 548.571428h548.571428V658.285714a18.285714 18.285714 0 1 1 36.571429 0v146.285715a18.285714 18.285714 0 0 1-18.285714 18.285714H219.428571a18.285714 18.285714 0 0 1-18.285714-18.285714v-146.285715a18.285714 18.285714 0 1 1 36.571429 0v128z m-54.857143-256a18.285714 18.285714 0 0 1 0-36.571428h658.285714a18.285714 18.285714 0 1 1 0 36.571428H182.857143z" /></svg>
