<?xml version="1.0" standalone="no"?><!DOCTYPE svg PUBLIC "-//W3C//DTD SVG 1.1//EN" "http://www.w3.org/Graphics/SVG/1.1/DTD/svg11.dtd"><svg class="icon" width="200px" height="200.00px" viewBox="0 0 1024 1024" version="1.1" xmlns="http://www.w3.org/2000/svg"><path d="M326.692571 262.363429A310.857143 310.857143 0 1 1 201.142857 512a18.285714 18.285714 0 1 1 36.571429 0c0 73.764571 29.220571 142.811429 80.347428 193.938286a274.285714 274.285714 0 1 0 23.296-408.722286l48.274286 12.946286a18.285714 18.285714 0 1 1-9.508571 35.328L291.84 321.828571a18.285714 18.285714 0 0 1-12.909714-22.381714l23.661714-88.32a18.285714 18.285714 0 0 1 35.328 9.472l-11.227429 41.764572z" /></svg>
