<?xml version="1.0" standalone="no"?><!DOCTYPE svg PUBLIC "-//W3C//DTD SVG 1.1//EN" "http://www.w3.org/Graphics/SVG/1.1/DTD/svg11.dtd"><svg class="icon" width="200px" height="200.00px" viewBox="0 0 1024 1024" version="1.1" xmlns="http://www.w3.org/2000/svg"><path d="M530.285714 678.4a91.465143 91.465143 0 1 1-36.571428 0V182.857143a18.285714 18.285714 0 1 1 36.571428 0v495.542857z m256-332.8V841.142857a18.285714 18.285714 0 1 1-36.571428 0V345.6a91.428571 91.428571 0 1 1 36.571428 0z m-512 0V841.142857a18.285714 18.285714 0 0 1-36.571428 0V345.6a91.428571 91.428571 0 1 1 36.571428 0zM768 201.142857a54.857143 54.857143 0 1 0 0 109.714286 54.857143 54.857143 0 0 0 0-109.714286z m-256 512a54.857143 54.857143 0 1 0 0 109.714286 54.857143 54.857143 0 0 0 0-109.714286z m-256-512a54.857143 54.857143 0 1 0 0 109.714286 54.857143 54.857143 0 0 0 0-109.714286z" /></svg>
