<?xml version="1.0" standalone="no"?><!DOCTYPE svg PUBLIC "-//W3C//DTD SVG 1.1//EN" "http://www.w3.org/Graphics/SVG/1.1/DTD/svg11.dtd"><svg class="icon" width="200px" height="200.00px" viewBox="0 0 1024 1024" version="1.1" xmlns="http://www.w3.org/2000/svg"><path d="M890.989714 280.027429a18.212571 18.212571 0 0 1 0 25.088l-68.754285 73.142857a18.285714 18.285714 0 1 1-26.624-25.088L835.401143 310.857143H786.285714a256 256 0 0 0-256 256V658.285714a18.285714 18.285714 0 1 1-36.571428 0v-91.428571a292.571429 292.571429 0 0 1 292.571428-292.571429h49.115429l-39.789714-42.313143a18.285714 18.285714 0 1 1 26.660571-25.088l68.754286 73.142858zM694.857143 603.428571a18.285714 18.285714 0 1 1 0-36.571428h146.285714a18.285714 18.285714 0 0 1 18.285714 18.285714v219.428572a18.285714 18.285714 0 0 1-18.285714 18.285714H182.857143a18.285714 18.285714 0 0 1-18.285714-18.285714v-219.428572a18.285714 18.285714 0 0 1 18.285714-18.285714h146.285714a18.285714 18.285714 0 1 1 0 36.571428H201.142857v182.857143h621.714286v-182.857143H694.857143z" /></svg>
