<?xml version="1.0" standalone="no"?><!DOCTYPE svg PUBLIC "-//W3C//DTD SVG 1.1//EN" "http://www.w3.org/Graphics/SVG/1.1/DTD/svg11.dtd"><svg class="icon" width="200px" height="200.00px" viewBox="0 0 1024 1024" version="1.1" xmlns="http://www.w3.org/2000/svg"><path d="M91.428571 384v256H292.571429a18.285714 18.285714 0 0 1 12.946285 5.339429l151.625143 151.661714V226.998857l-151.625143 151.661714A18.285714 18.285714 0 0 1 292.571429 384H91.428571z m193.572572 292.571429H73.142857a18.285714 18.285714 0 0 1-18.285714-18.285715v-292.571428a18.285714 18.285714 0 0 1 18.285714-18.285715h211.858286l177.481143-177.517714A18.285714 18.285714 0 0 1 493.714286 182.857143v658.285714a18.285714 18.285714 0 0 1-31.232 12.946286L285.001143 676.571429z m560.969143 132.827428a18.285714 18.285714 0 0 1-25.856-25.856A382.683429 382.683429 0 0 0 932.571429 512c0-103.241143-40.923429-199.972571-112.457143-271.542857a18.285714 18.285714 0 0 1 25.856-25.856A419.218286 419.218286 0 0 1 969.142857 512c0 113.042286-44.836571 219.062857-123.172571 297.398857z m-103.460572-103.460571a18.285714 18.285714 0 0 1-25.856-25.856A236.873143 236.873143 0 0 0 786.285714 512a236.873143 236.873143 0 0 0-69.632-168.082286 18.285714 18.285714 0 1 1 25.856-25.856A273.444571 273.444571 0 0 1 822.857143 512c0 73.728-29.257143 142.848-80.347429 193.938286z m-103.424-103.424a18.285714 18.285714 0 1 1-25.856-25.856A91.062857 91.062857 0 0 0 640 512a91.062857 91.062857 0 0 0-26.770286-64.658286 18.285714 18.285714 0 1 1 25.856-25.856A127.634286 127.634286 0 0 1 676.571429 512a127.634286 127.634286 0 0 1-37.485715 90.514286z" /></svg>
