<?xml version="1.0" standalone="no"?><!DOCTYPE svg PUBLIC "-//W3C//DTD SVG 1.1//EN" "http://www.w3.org/Graphics/SVG/1.1/DTD/svg11.dtd"><svg class="icon" width="200px" height="200.00px" viewBox="0 0 1024 1024" version="1.1" xmlns="http://www.w3.org/2000/svg"><path d="M786.285714 603.428571a18.285714 18.285714 0 1 1 36.571429 0V841.142857a18.285714 18.285714 0 0 1-18.285714 18.285714H219.428571a18.285714 18.285714 0 0 1-18.285714-18.285714v-237.714286a18.285714 18.285714 0 1 1 36.571429 0v219.428572h548.571428v-219.428572z m-365.714285-55.332571a109.714286 109.714286 0 0 1-91.428572-49.005714 109.714286 109.714286 0 0 1-190.902857-106.898286l82.395429-215.844571A18.285714 18.285714 0 0 1 237.714286 164.571429h548.571428a18.285714 18.285714 0 0 1 17.078857 11.776l81.773715 214.381714c2.706286 5.595429 4.900571 11.373714 6.107428 15.872l0.548572 1.536A109.714286 109.714286 0 0 1 694.857143 499.126857a109.714286 109.714286 0 0 1-182.930286 0 109.714286 109.714286 0 0 1-91.392 49.005714z" /></svg>
