<?xml version="1.0" standalone="no"?><!DOCTYPE svg PUBLIC "-//W3C//DTD SVG 1.1//EN" "http://www.w3.org/Graphics/SVG/1.1/DTD/svg11.dtd"><svg class="icon" width="200px" height="200.00px" viewBox="0 0 1024 1024" version="1.1" xmlns="http://www.w3.org/2000/svg"><path d="M420.571429 548.096a109.714286 109.714286 0 0 1-91.428572-49.005714 109.714286 109.714286 0 0 1-190.902857-106.898286l82.395429-215.844571A18.285714 18.285714 0 0 1 237.714286 164.571429h548.571428a18.285714 18.285714 0 0 1 17.078857 11.776l81.773715 214.381714c2.706286 5.595429 4.900571 11.373714 6.107428 15.872l0.548572 1.536A109.714286 109.714286 0 0 1 694.857143 499.126857a109.714286 109.714286 0 0 1-182.930286 0 109.714286 109.714286 0 0 1-91.392 49.005714z m365.714285 55.332571a18.285714 18.285714 0 1 1 36.571429 0V841.142857a18.285714 18.285714 0 0 1-18.285714 18.285714H219.428571a18.285714 18.285714 0 0 1-18.285714-18.285714v-237.714286a18.285714 18.285714 0 1 1 36.571429 0v219.428572h548.571428v-219.428572zM250.294857 201.142857l-78.518857 205.531429a72.484571 72.484571 0 0 0-7.204571 31.707428 73.142857 73.142857 0 0 0 146.066285 5.668572 18.285714 18.285714 0 0 1 18.249143-16.932572c10.093714 0 18.029714 7.387429 18.761143 16.932572a73.142857 73.142857 0 0 0 145.846857 0 18.285714 18.285714 0 0 1 18.249143-16.932572c10.093714 0 18.029714 7.387429 18.761143 16.932572a73.142857 73.142857 0 0 0 145.846857 0 18.285714 18.285714 0 0 1 18.249143-16.932572c10.093714 0 18.029714 7.387429 18.761143 16.932572a73.142857 73.142857 0 0 0 146.066285-5.668572 74.605714 74.605714 0 0 0-2.304-18.688l-0.512-1.536a84.224 84.224 0 0 0-5.010285-12.946285l-77.897143-204.068572H250.294857z" /></svg>
