<?xml version="1.0" standalone="no"?><!DOCTYPE svg PUBLIC "-//W3C//DTD SVG 1.1//EN" "http://www.w3.org/Graphics/SVG/1.1/DTD/svg11.dtd"><svg class="icon" width="200px" height="200.00px" viewBox="0 0 1024 1024" version="1.1" xmlns="http://www.w3.org/2000/svg"><path d="M512 859.428571a347.428571 347.428571 0 1 0 0-694.857142 347.428571 347.428571 0 0 0 0 694.857142z m0 36.571429C299.922286 896 128 724.077714 128 512S299.922286 128 512 128 896 299.922286 896 512 724.077714 896 512 896z m99.949714-281.892571l-24.868571 12.434285a231.314286 231.314286 0 0 1-103.424 24.429715h-10.057143a58.514286 58.514286 0 0 1-58.514286-58.514286 18.285714 18.285714 0 1 1 36.571429 0 21.942857 21.942857 0 0 0 21.942857 21.942857h10.057143c10.752 0 21.467429-0.877714 32-2.633143V550.4h-82.285714a18.285714 18.285714 0 1 1 0-36.571429h82.285714v-23.771428h-37.522286a141.824 141.824 0 0 1-6.217143 6.546286l-2.121143 2.121142a18.285714 18.285714 0 1 1-25.746285-25.965714l2.157714-2.121143c10.825143-10.752 19.2-23.698286 24.502857-37.997714a18.285714 18.285714 0 0 1 34.267429 12.8 141.824 141.824 0 0 1-3.291429 8.045714H614.4a18.285714 18.285714 0 1 1 0 36.571429h-62.171429v23.771428h82.285715a18.285714 18.285714 0 1 1 0 36.571429H552.228571v51.529143c6.290286-2.377143 12.470857-5.083429 18.505143-8.082286l25.380572-12.690286a18.285714 18.285714 0 0 1 34.157714-8.667428l15.981714 27.940571a18.285714 18.285714 0 0 1-31.744 18.176l-2.56-4.498285z m-149.577143-233.837715A436.077714 436.077714 0 0 1 614.4 352.914286a98.742857 98.742857 0 0 1 98.742857 98.742857v148.114286a91.428571 91.428571 0 0 1-91.428571 91.428571h-47.542857a18.285714 18.285714 0 1 1 0-36.571429H621.714286a54.857143 54.857143 0 0 0 54.857143-54.857142v-148.114286a62.171429 62.171429 0 0 0-62.171429-62.171429c-50.834286 0-101.193143 9.691429-148.370286 28.562286l-25.856 10.349714a18.285714 18.285714 0 0 1-4.790857 1.206857 259.291429 259.291429 0 0 1-29.293714 34.998858 18.285714 18.285714 0 0 1-25.892572-25.892572 222.72 222.72 0 0 0 53.833143-87.04l2.121143-6.363428a18.285714 18.285714 0 1 1 34.669714 11.556571l-2.121142 6.363429a259.291429 259.291429 0 0 1-6.326858 17.042285z m-115.492571 27.136a30.171429 30.171429 0 1 1 0-60.342857 30.171429 30.171429 0 0 1 0 60.342857z m-34.523429 70.765715a18.285714 18.285714 0 1 1 15.433143-33.133715l11.483429 5.339429a91.428571 91.428571 0 0 1 39.131428 130.925714l-50.176 81.115429a18.285714 18.285714 0 1 1-31.085714-19.236572l50.139429-81.078857a54.857143 54.857143 0 0 0-23.442286-78.592l-11.483429-5.339428z" /></svg>
