<?xml version="1.0" standalone="no"?><!DOCTYPE svg PUBLIC "-//W3C//DTD SVG 1.1//EN" "http://www.w3.org/Graphics/SVG/1.1/DTD/svg11.dtd"><svg class="icon" width="200px" height="200.00px" viewBox="0 0 1024 1024" version="1.1" xmlns="http://www.w3.org/2000/svg"><path d="M822.857143 592.713143V877.714286a18.285714 18.285714 0 1 1-36.571429 0v-285.001143l-41.910857 41.947428a18.285714 18.285714 0 0 1-25.892571-25.892571l73.142857-73.142857a18.285714 18.285714 0 0 1 25.892571 0l73.142857 73.142857a18.285714 18.285714 0 0 1-25.892571 25.892571L822.857143 592.713143z m72.448-103.862857a18.285714 18.285714 0 1 1-36.498286 2.194285C847.908571 308.114286 696.064 164.571429 512 164.571429a347.428571 347.428571 0 0 0 0 694.857142 345.673143 345.673143 0 0 0 190.281143-56.685714 18.285714 18.285714 0 1 1 20.041143 30.573714A382.244571 382.244571 0 0 1 512 896C299.922286 896 128 724.077714 128 512S299.922286 128 512 128c203.446857 0 371.273143 158.72 383.305143 360.850286zM493.714286 365.714286a18.285714 18.285714 0 1 1 36.571428 0v146.285714a18.285714 18.285714 0 0 1-5.339428 12.946286l-73.142857 73.142857a18.285714 18.285714 0 0 1-25.892572-25.892572l67.803429-67.766857V365.714286z" /></svg>
