<?xml version="1.0" standalone="no"?><!DOCTYPE svg PUBLIC "-//W3C//DTD SVG 1.1//EN" "http://www.w3.org/Graphics/SVG/1.1/DTD/svg11.dtd"><svg class="icon" width="200px" height="200.00px" viewBox="0 0 1024 1024" version="1.1" xmlns="http://www.w3.org/2000/svg"><path d="M512 859.428571a347.428571 347.428571 0 1 0 0-694.857142 347.428571 347.428571 0 0 0 0 694.857142z m0 36.571429C299.922286 896 128 724.077714 128 512S299.922286 128 512 128 896 299.922286 896 512 724.077714 896 512 896zM493.714286 292.571429a18.285714 18.285714 0 1 1 36.571428 0v219.428571a18.285714 18.285714 0 0 1-5.193143 12.763429L416.914286 635.977143a18.285714 18.285714 0 0 1-26.221715-25.490286l103.021715-105.910857V292.571429z" /></svg>
