<?xml version="1.0" standalone="no"?><!DOCTYPE svg PUBLIC "-//W3C//DTD SVG 1.1//EN" "http://www.w3.org/Graphics/SVG/1.1/DTD/svg11.dtd"><svg class="icon" width="200px" height="200.00px" viewBox="0 0 1024 1024" version="1.1" xmlns="http://www.w3.org/2000/svg"><path d="M512 896C299.922286 896 128 724.077714 128 512S299.922286 128 512 128 896 299.922286 896 512 724.077714 896 512 896z m0-36.571429a347.428571 347.428571 0 1 0 0-694.857142 347.428571 347.428571 0 0 0 0 694.857142z m18.285714-201.142857a18.285714 18.285714 0 1 1-36.571428 0v-18.285714a18.285714 18.285714 0 1 1 36.571428 0v18.285714z m0-246.674285a27.428571 27.428571 0 1 0-54.857143 0V438.857143a18.285714 18.285714 0 1 1-36.571428 0v-27.245714a64 64 0 1 1 128 0V438.857143l-0.950857 5.778286-36.571429 109.714285a18.285714 18.285714 0 1 1-34.669714-11.556571l35.620571-106.898286v-24.283428z" /></svg>
