<?xml version="1.0" standalone="no"?><!DOCTYPE svg PUBLIC "-//W3C//DTD SVG 1.1//EN" "http://www.w3.org/Graphics/SVG/1.1/DTD/svg11.dtd"><svg class="icon" width="200px" height="200.00px" viewBox="0 0 1024 1024" version="1.1" xmlns="http://www.w3.org/2000/svg"><path d="M512 896C299.922286 896 128 724.077714 128 512S299.922286 128 512 128 896 299.922286 896 512 724.077714 896 512 896z m0-36.571429a347.428571 347.428571 0 1 0 0-694.857142 347.428571 347.428571 0 0 0 0 694.857142zM329.142857 548.571429a36.571429 36.571429 0 1 1 0-73.142858 36.571429 36.571429 0 0 1 0 73.142858z m182.857143 0a36.571429 36.571429 0 1 1 0-73.142858 36.571429 36.571429 0 0 1 0 73.142858z m182.857143 0a36.571429 36.571429 0 1 1 0-73.142858 36.571429 36.571429 0 0 1 0 73.142858z" /></svg>
