<?xml version="1.0" standalone="no"?><!DOCTYPE svg PUBLIC "-//W3C//DTD SVG 1.1//EN" "http://www.w3.org/Graphics/SVG/1.1/DTD/svg11.dtd"><svg class="icon" width="200px" height="200.00px" viewBox="0 0 1024 1024" version="1.1" xmlns="http://www.w3.org/2000/svg"><path d="M530.285714 373.284571V804.571429a18.285714 18.285714 0 1 1-36.571428 0V373.284571l-41.910857 41.947429a18.285714 18.285714 0 0 1-25.892572-25.892571l73.142857-73.142858a18.285714 18.285714 0 0 1 25.892572 0l73.142857 73.142858a18.285714 18.285714 0 0 1-25.892572 25.892571L530.285714 373.284571zM219.428571 237.714286a18.285714 18.285714 0 0 1 0-36.571429h585.142858a18.285714 18.285714 0 1 1 0 36.571429H219.428571z" /></svg>
