<?xml version="1.0" standalone="no"?><!DOCTYPE svg PUBLIC "-//W3C//DTD SVG 1.1//EN" "http://www.w3.org/Graphics/SVG/1.1/DTD/svg11.dtd"><svg class="icon" width="200px" height="200.00px" viewBox="0 0 1024 1024" version="1.1" xmlns="http://www.w3.org/2000/svg"><path d="M713.142857 395.300571V566.857143h182.857143v-80.128l-182.857143-91.428572z m0-40.886857l209.334857 104.667429A18.285714 18.285714 0 0 1 932.571429 475.428571v292.571429a18.285714 18.285714 0 0 1-18.285715 18.285714h-38.070857a18.285714 18.285714 0 0 1 0-36.571428h19.785143v-146.285715h-182.857143v18.688a18.285714 18.285714 0 0 1-36.571428 0v-256V237.714286h-548.571429v512H146.285714a18.285714 18.285714 0 1 1 0 36.571428H109.714286a18.285714 18.285714 0 0 1-18.285715-18.285714V219.428571a18.285714 18.285714 0 0 1 18.285715-18.285714h585.142857a18.285714 18.285714 0 0 1 18.285714 18.285714v134.985143zM641.828571 749.714286a91.465143 91.465143 0 1 1 0 36.571428h-259.657142a91.428571 91.428571 0 1 1 0-36.571428h259.657142zM347.428571 768a54.857143 54.857143 0 1 0-109.714285 0 54.857143 54.857143 0 0 0 109.714285 0z m438.857143 0a54.857143 54.857143 0 1 0-109.714285 0 54.857143 54.857143 0 0 0 109.714285 0z" /></svg>
