<?xml version="1.0" standalone="no"?><!DOCTYPE svg PUBLIC "-//W3C//DTD SVG 1.1//EN" "http://www.w3.org/Graphics/SVG/1.1/DTD/svg11.dtd"><svg class="icon" width="200px" height="200.00px" viewBox="0 0 1024 1024" version="1.1" xmlns="http://www.w3.org/2000/svg"><path d="M201.910857 201.142857V548.571429a18.285714 18.285714 0 1 1-36.571428 0V182.857143a18.285714 18.285714 0 0 1 18.285714-18.285714H841.142857a18.285714 18.285714 0 0 1 18.285714 18.285714v658.322286a18.285714 18.285714 0 0 1-18.285714 18.285714H182.857143a18.285714 18.285714 0 0 1-18.285714-18.395429l0.768-146.285714a18.285714 18.285714 0 0 1 5.339428-12.8l182.089143-182.857143a18.285714 18.285714 0 0 1 25.892571-0.036571L475.428571 595.858286l243.053715-243.090286a18.285714 18.285714 0 0 1 25.892571 25.892571l-256 256a18.285714 18.285714 0 0 1-25.892571 0l-96.731429-96.768-163.84 164.571429-0.658286 120.429714H822.857143V201.142857H201.910857z" /></svg>
